bpmf.ufo
<glyph name="uni3105" format="2">
  <advance width="1000" height="1000"/>
  <unicode hex="3105"/>
  <note>
uni3105
</note>
  <outline>
    <contour>
      <point x="567" y="-53"/>
      <point x="721" y="-18"/>
      <point x="741" y="33" type="qcurve" smooth="yes"/>
      <point x="765" y="94"/>
      <point x="808" y="345"/>
      <point x="818" y="494" type="qcurve" smooth="yes"/>
      <point x="823" y="576"/>
      <point x="742" y="576" type="qcurve" smooth="yes"/>
      <point x="306" y="576" type="line" smooth="yes"/>
      <point x="290" y="576"/>
      <point x="276" y="595"/>
      <point x="283" y="610" type="qcurve"/>
      <point x="342" y="780" type="line"/>
      <point x="251" y="803" type="line"/>
      <point x="192" y="623"/>
      <point x="181" y="588" type="qcurve" smooth="yes"/>
      <point x="167" y="545"/>
      <point x="202" y="495"/>
      <point x="245" y="495" type="qcurve" smooth="yes"/>
      <point x="688" y="495" type="line" smooth="yes"/>
      <point x="720" y="495"/>
      <point x="717" y="464" type="qcurve" smooth="yes"/>
      <point x="704" y="342"/>
      <point x="676" y="134"/>
      <point x="659" y="87" type="qcurve" smooth="yes"/>
      <point x="646" y="56"/>
      <point x="545" y="43"/>
      <point x="474" y="41" type="qcurve"/>
      <point x="468" y="-53" type="line"/>
    </contour>
  </outline>
</glyph>
<glyph name="uni3109" format="2">
  <advance width="1000" height="1000"/>
  <unicode hex="3109"/>
  <note>
uni3109
</note>
  <outline>
    <contour>
      <point x="595" y="-26"/>
      <point x="653" y="-24" type="qcurve"/>
      <point x="702" y="-20"/>
      <point x="762" y="35"/>
      <point x="796" y="153"/>
      <point x="818" y="346"/>
      <point x="829" y="488" type="qcurve" smooth="yes"/>
      <point x="833" y="531"/>
      <point x="793" y="576"/>
      <point x="754" y="576" type="qcurve" smooth="yes"/>
      <point x="313" y="576" type="line" smooth="yes"/>
      <point x="297" y="576"/>
      <point x="283" y="595"/>
      <point x="290" y="610" type="qcurve"/>
      <point x="354" y="783" type="line"/>
      <point x="261" y="803" type="line"/>
      <point x="188" y="586" type="line" smooth="yes"/>
      <point x="174" y="546"/>
      <point x="208" y="497"/>
      <point x="251" y="497" type="qcurve" smooth="yes"/>
      <point x="438" y="497" type="line"/>
      <point x="408" y="329"/>
      <point x="246" y="98"/>
      <point x="119" y="37" type="qcurve"/>
      <point x="163" y="-38" type="line"/>
      <point x="260" y="11"/>
      <point x="415" y="172"/>
      <point x="503" y="367"/>
      <point x="526" y="497" type="qcurve"/>
      <point x="712" y="497" type="line" smooth="yes"/>
      <point x="743" y="497"/>
      <point x="740" y="465" type="qcurve" smooth="yes"/>
      <point x="729" y="334"/>
      <point x="710" y="172"/>
      <point x="685" y="87"/>
      <point x="647" y="56"/>
      <point x="617" y="56" type="qcurve" smooth="yes"/>
      <point x="607" y="56"/>
      <point x="554" y="59" type="qcurve"/>
      <point x="530" y="-20" type="line"/>
    </contour>
  </outline>
</glyph>
<glyph name="uni310D" format="2">
  <advance width="1000" height="1000"/>
  <unicode hex="310D"/>
  <note>
uni310D
</note>
  <outline>
    <contour>
      <point x="405" y="-3" type="qcurve"/>
      <point x="483" y="43" type="line"/>
      <point x="456" y="92"/>
      <point x="371" y="215"/>
      <point x="286" y="332"/>
      <point x="243" y="385" type="qcurve" smooth="yes"/>
      <point x="226" y="407"/>
      <point x="241" y="427" type="qcurve" smooth="yes"/>
      <point x="262" y="456" type="line" smooth="yes"/>
      <point x="306" y="520"/>
      <point x="398" y="655"/>
      <point x="437" y="722" type="qcurve"/>
      <point x="360" y="770" type="line"/>
      <point x="323" y="705"/>
      <point x="213" y="535"/>
      <point x="163" y="461" type="qcurve" smooth="yes"/>
      <point x="126" y="405"/>
      <point x="166" y="351" type="qcurve" smooth="yes"/>
      <point x="231" y="263"/>
      <point x="366" y="71"/>
    </contour>
    <contour>
      <point x="748" y="3" type="qcurve"/>
      <point x="817" y="59" type="line"/>
      <point x="771" y="131"/>
      <point x="637" y="309"/>
      <point x="575" y="383" type="qcurve" smooth="yes"/>
      <point x="559" y="402"/>
      <point x="574" y="424" type="qcurve" smooth="yes"/>
      <point x="604" y="466" type="line" smooth="yes"/>
      <point x="648" y="523"/>
      <point x="734" y="644"/>
      <point x="770" y="703" type="qcurve"/>
      <point x="692" y="754" type="line"/>
      <point x="656" y="693"/>
      <point x="546" y="531"/>
      <point x="494" y="461" type="qcurve" smooth="yes"/>
      <point x="453" y="406"/>
      <point x="496" y="350" type="qcurve" smooth="yes"/>
      <point x="563" y="267"/>
      <point x="710" y="74"/>
    </contour>
  </outline>
</glyph>
<glyph name="uni310E" format="2">
  <advance width="1000" height="1000"/>
  <unicode hex="310E"/>
  <note>
uni310E
</note>
  <outline>
    <contour>
      <point x="588" y="-24"/>
      <point x="643" y="-9"/>
      <point x="665" y="19" type="qcurve" smooth="yes"/>
      <point x="691" y="51"/>
      <point x="732" y="166"/>
      <point x="761" y="310"/>
      <point x="768" y="386" type="qcurve" smooth="yes"/>
      <point x="771" y="426"/>
      <point x="731" y="468"/>
      <point x="692" y="468" type="qcurve" smooth="yes"/>
      <point x="386" y="468" type="line" smooth="yes"/>
      <point x="367" y="468"/>
      <point x="358" y="489"/>
      <point x="367" y="504" type="qcurve" smooth="yes"/>
      <point x="390" y="541"/>
      <point x="437" y="623"/>
      <point x="459" y="663" type="qcurve"/>
      <point x="851" y="663" type="line"/>
      <point x="851" y="746" type="line"/>
      <point x="130" y="746" type="line"/>
      <point x="130" y="663" type="line"/>
      <point x="359" y="663" type="line"/>
      <point x="333" y="617"/>
      <point x="279" y="529"/>
      <point x="253" y="482" type="qcurve" smooth="yes"/>
      <point x="231" y="442"/>
      <point x="260" y="388"/>
      <point x="307" y="388" type="qcurve" smooth="yes"/>
      <point x="649" y="388" type="line" smooth="yes"/>
      <point x="681" y="388"/>
      <point x="676" y="356" type="qcurve" smooth="yes"/>
      <point x="657" y="231"/>
      <point x="613" y="91"/>
      <point x="591" y="70" type="qcurve" smooth="yes"/>
      <point x="578" y="57"/>
      <point x="546" y="51"/>
      <point x="526" y="51" type="qcurve" smooth="yes"/>
      <point x="510" y="51"/>
      <point x="442" y="53"/>
      <point x="405" y="55" type="qcurve"/>
      <point x="395" y="-25" type="line"/>
      <point x="436" y="-27"/>
      <point x="530" y="-27"/>
      <point x="553" y="-26" type="qcurve" smooth="yes"/>
    </contour>
  </outline>
</glyph>
<glyph name="uni310F" format="2">
  <advance width="1000" height="1000"/>
  <unicode hex="310F"/>
  <note>
uni310F
</note>
  <outline>
    <contour>
      <point x="99" y="-29"/>
      <point x="136" y="-23"/>
      <point x="150" y="-1" type="qcurve" smooth="yes"/>
      <point x="195" y="66"/>
      <point x="239" y="224"/>
      <point x="254" y="383"/>
      <point x="254" y="451" type="qcurve" smooth="yes"/>
      <point x="254" y="604" type="line" smooth="yes"/>
      <point x="254" y="633"/>
      <point x="283" y="633" type="qcurve" smooth="yes"/>
      <point x="820" y="633" type="line"/>
      <point x="820" y="716" type="line"/>
      <point x="248" y="716" type="line" smooth="yes"/>
      <point x="170" y="716"/>
      <point x="170" y="637" type="qcurve" smooth="yes"/>
      <point x="170" y="452" type="line" smooth="yes"/>
      <point x="170" y="392"/>
      <point x="158" y="253"/>
      <point x="120" y="113"/>
      <point x="79" y="50" type="qcurve"/>
      <point x="69" y="37"/>
      <point x="67" y="-8"/>
      <point x="81" y="-18" type="qcurve" smooth="yes"/>
    </contour>
  </outline>
</glyph>
<glyph name="uni3110" format="2">
  <advance width="1000" height="1000"/>
  <unicode hex="3110"/>
  <note>
uni3110
</note>
  <outline>
    <contour>
      <point x="648" y="-56" type="line"/>
      <point x="734" y="-56" type="line"/>
      <point x="734" y="749" type="line"/>
      <point x="648" y="749" type="line"/>
      <point x="648" y="334" type="line"/>
      <point x="431" y="289"/>
      <point x="358" y="272" type="qcurve" smooth="yes"/>
      <point x="344" y="269"/>
      <point x="326" y="282"/>
      <point x="326" y="298" type="qcurve" smooth="yes"/>
      <point x="326" y="701" type="line"/>
      <point x="243" y="701" type="line"/>
      <point x="243" y="241" type="line" smooth="yes"/>
      <point x="243" y="200"/>
      <point x="288" y="163"/>
      <point x="328" y="173" type="qcurve" smooth="yes"/>
      <point x="355" y="180"/>
      <point x="434" y="201"/>
      <point x="648" y="252" type="qcurve"/>
    </contour>
  </outline>
</glyph>
<glyph name="uni3111" format="2">
  <advance width="1000" height="1000"/>
  <unicode hex="3111"/>
  <note>
uni3111
</note>
  <outline>
    <contour>
      <point x="707" y="-3"/>
      <point x="707" y="37"/>
      <point x="693" y="53" type="qcurve" smooth="yes"/>
      <point x="652" y="103"/>
      <point x="544" y="218"/>
      <point x="426" y="333"/>
      <point x="368" y="384" type="qcurve"/>
      <point x="347" y="406"/>
      <point x="367" y="426" type="qcurve" smooth="yes"/>
      <point x="407" y="467" type="line" smooth="yes"/>
      <point x="467" y="529"/>
      <point x="597" y="656"/>
      <point x="653" y="720" type="qcurve" smooth="yes"/>
      <point x="670" y="740"/>
      <point x="671" y="779"/>
      <point x="649" y="793" type="qcurve" smooth="yes"/>
      <point x="628" y="807"/>
      <point x="591" y="790"/>
      <point x="572" y="770" type="qcurve" smooth="yes"/>
      <point x="535" y="728"/>
      <point x="441" y="626"/>
      <point x="340" y="517"/>
      <point x="289" y="463" type="qcurve" smooth="yes"/>
      <point x="235" y="405"/>
      <point x="289" y="351" type="qcurve" smooth="yes"/>
      <point x="382" y="260"/>
      <point x="551" y="74"/>
      <point x="609" y="-2" type="qcurve" smooth="yes"/>
      <point x="623" y="-21"/>
      <point x="668" y="-35"/>
      <point x="687" y="-20" type="qcurve" smooth="yes"/>
    </contour>
  </outline>
</glyph>
<glyph name="uni3112" format="2">
  <advance width="1000" height="1000"/>
  <unicode hex="3112"/>
  <note>
uni3112
</note>
  <outline>
    <contour>
      <point x="536" y="-33"/>
      <point x="536" y="22" type="qcurve" smooth="yes"/>
      <point x="536" y="646" type="line"/>
      <point x="834" y="646" type="line" smooth="yes"/>
      <point x="888" y="646"/>
      <point x="888" y="688" type="qcurve" smooth="yes"/>
      <point x="888" y="730"/>
      <point x="834" y="730" type="qcurve" smooth="yes"/>
      <point x="146" y="730" type="line" smooth="yes"/>
      <point x="92" y="730"/>
      <point x="92" y="688" type="qcurve" smooth="yes"/>
      <point x="92" y="646"/>
      <point x="146" y="646" type="qcurve" smooth="yes"/>
      <point x="441" y="646" type="line"/>
      <point x="441" y="22" type="line" smooth="yes"/>
      <point x="441" y="-33"/>
      <point x="489" y="-33" type="qcurve" smooth="yes"/>
    </contour>
  </outline>
</glyph>
<glyph name="uni3113" format="2">
  <advance width="1000" height="1000"/>
  <unicode hex="3113"/>
  <note>
uni3113
</note>
  <outline>
    <contour>
      <point x="854" y="0" type="line" smooth="yes"/>
      <point x="909" y="0"/>
      <point x="909" y="41" type="qcurve" smooth="yes"/>
      <point x="909" y="83"/>
      <point x="854" y="83" type="qcurve" smooth="yes"/>
      <point x="529" y="83" type="line"/>
      <point x="529" y="249" type="line"/>
      <point x="752" y="249" type="line" smooth="yes"/>
      <point x="830" y="249"/>
      <point x="830" y="327" type="qcurve" smooth="yes"/>
      <point x="830" y="638" type="line" smooth="yes"/>
      <point x="830" y="694"/>
      <point x="785" y="694" type="qcurve" smooth="yes"/>
      <point x="740" y="694"/>
      <point x="740" y="638" type="qcurve" smooth="yes"/>
      <point x="740" y="359" type="line" smooth="yes"/>
      <point x="740" y="330"/>
      <point x="711" y="330" type="qcurve" smooth="yes"/>
      <point x="529" y="330" type="line"/>
      <point x="529" y="742" type="line" smooth="yes"/>
      <point x="529" y="797"/>
      <point x="487" y="797" type="qcurve" smooth="yes"/>
      <point x="444" y="797"/>
      <point x="444" y="742" type="qcurve" smooth="yes"/>
      <point x="444" y="330" type="line"/>
      <point x="274" y="330" type="line" smooth="yes"/>
      <point x="245" y="330"/>
      <point x="245" y="359" type="qcurve" smooth="yes"/>
      <point x="245" y="638" type="line" smooth="yes"/>
      <point x="245" y="694"/>
      <point x="202" y="694" type="qcurve" smooth="yes"/>
      <point x="159" y="694"/>
      <point x="159" y="638" type="qcurve" smooth="yes"/>
      <point x="159" y="327" type="line" smooth="yes"/>
      <point x="159" y="249"/>
      <point x="237" y="249" type="qcurve" smooth="yes"/>
      <point x="444" y="249" type="line"/>
      <point x="444" y="83" type="line"/>
      <point x="123" y="83" type="line" smooth="yes"/>
      <point x="97" y="83"/>
      <point x="67" y="61"/>
      <point x="67" y="41" type="qcurve" smooth="yes"/>
      <point x="67" y="21"/>
      <point x="97" y="0"/>
      <point x="123" y="0" type="qcurve" smooth="yes"/>
    </contour>
  </outline>
</glyph>
<glyph name="uni3114" format="2">
  <advance width="1000" height="1000"/>
  <unicode hex="3114"/>
  <note>
uni3114
</note>
  <outline>
    <contour>
      <point x="364" y="542"/>
      <point x="560" y="673"/>
      <point x="633" y="746" type="qcurve" smooth="yes"/>
      <point x="655" y="767"/>
      <point x="655" y="804"/>
      <point x="638" y="816" type="qcurve" smooth="yes"/>
      <point x="621" y="828"/>
      <point x="580" y="816"/>
      <point x="563" y="796" type="qcurve"/>
      <point x="502" y="734"/>
      <point x="321" y="613"/>
      <point x="220" y="567" type="qcurve" smooth="yes"/>
      <point x="201" y="559"/>
      <point x="179" y="530"/>
      <point x="187" y="508" type="qcurve" smooth="yes"/>
      <point x="194" y="488"/>
      <point x="235" y="482"/>
      <point x="257" y="493" type="qcurve" smooth="yes"/>
    </contour>
    <contour>
      <point x="577" y="-39"/>
      <point x="577" y="15" type="qcurve" smooth="yes"/>
      <point x="577" y="413" type="line"/>
      <point x="639" y="459"/>
      <point x="744" y="556"/>
      <point x="788" y="605" type="qcurve" smooth="yes"/>
      <point x="807" y="627"/>
      <point x="806" y="665"/>
      <point x="788" y="676" type="qcurve" smooth="yes"/>
      <point x="771" y="688"/>
      <point x="733" y="676"/>
      <point x="717" y="656" type="qcurve" smooth="yes"/>
      <point x="652" y="580"/>
      <point x="482" y="443"/>
      <point x="291" y="331"/>
      <point x="193" y="290" type="qcurve" smooth="yes"/>
      <point x="141" y="268"/>
      <point x="157" y="224" type="qcurve" smooth="yes"/>
      <point x="165" y="201"/>
      <point x="203" y="196"/>
      <point x="228" y="207" type="qcurve" smooth="yes"/>
      <point x="297" y="238"/>
      <point x="429" y="310"/>
      <point x="490" y="350" type="qcurve"/>
      <point x="490" y="15" type="line" smooth="yes"/>
      <point x="490" y="-39"/>
      <point x="535" y="-39" type="qcurve" smooth="yes"/>
    </contour>
  </outline>
</glyph>
<glyph name="uni3115" format="2">
  <advance width="1000" height="1000"/>
  <unicode hex="3115"/>
  <note>
uni3115
</note>
  <outline>
    <contour>
      <point x="84" y="-43"/>
      <point x="128" y="-41"/>
      <point x="145" y="-23" type="qcurve" smooth="yes"/>
      <point x="272" y="115"/>
      <point x="279" y="356" type="qcurve" smooth="yes"/>
      <point x="279" y="385"/>
      <point x="309" y="385" type="qcurve" smooth="yes"/>
      <point x="772" y="385" type="line" smooth="yes"/>
      <point x="851" y="385"/>
      <point x="851" y="464" type="qcurve" smooth="yes"/>
      <point x="851" y="675" type="line" smooth="yes"/>
      <point x="851" y="753"/>
      <point x="772" y="753" type="qcurve" smooth="yes"/>
      <point x="210" y="753" type="line" smooth="yes"/>
      <point x="156" y="753"/>
      <point x="156" y="711" type="qcurve" smooth="yes"/>
      <point x="156" y="670"/>
      <point x="210" y="670" type="qcurve" smooth="yes"/>
      <point x="734" y="670" type="line" smooth="yes"/>
      <point x="764" y="670"/>
      <point x="764" y="640" type="qcurve" smooth="yes"/>
      <point x="764" y="498" type="line" smooth="yes"/>
      <point x="764" y="468"/>
      <point x="734" y="468" type="qcurve" smooth="yes"/>
      <point x="268" y="468" type="line" smooth="yes"/>
      <point x="189" y="468"/>
      <point x="189" y="390" type="qcurve" smooth="yes"/>
      <point x="189" y="375" type="line" smooth="yes"/>
      <point x="189" y="330"/>
      <point x="174" y="214"/>
      <point x="128" y="92"/>
      <point x="79" y="37" type="qcurve" smooth="yes"/>
      <point x="68" y="25"/>
      <point x="61" y="-16"/>
      <point x="71" y="-29" type="qcurve" smooth="yes"/>
    </contour>
  </outline>
</glyph>
<glyph name="uni3116" format="2">
  <advance width="1000" height="1000"/>
  <unicode hex="3116"/>
  <note>
uni3116
</note>
  <outline>
    <contour>
      <point x="746" y="6" type="line" smooth="yes"/>
      <point x="823" y="6"/>
      <point x="823" y="83" type="qcurve" smooth="yes"/>
      <point x="823" y="681" type="line" smooth="yes"/>
      <point x="823" y="759"/>
      <point x="745" y="759" type="qcurve" smooth="yes"/>
      <point x="234" y="759" type="line" smooth="yes"/>
      <point x="156" y="759"/>
      <point x="156" y="681" type="qcurve" smooth="yes"/>
      <point x="156" y="82" type="line" smooth="yes"/>
      <point x="156" y="44"/>
      <point x="198" y="5"/>
      <point x="235" y="6" type="qcurve" smooth="yes"/>
    </contour>
    <contour>
      <point x="245" y="93"/>
      <point x="245" y="122" type="qcurve" smooth="yes"/>
      <point x="245" y="643" type="line" smooth="yes"/>
      <point x="245" y="673"/>
      <point x="274" y="673" type="qcurve" smooth="yes"/>
      <point x="700" y="673" type="line" smooth="yes"/>
      <point x="729" y="673"/>
      <point x="729" y="643" type="qcurve" smooth="yes"/>
      <point x="729" y="120" type="line" smooth="yes"/>
      <point x="729" y="93"/>
      <point x="703" y="93" type="qcurve" smooth="yes"/>
      <point x="274" y="93" type="line" smooth="yes"/>
    </contour>
    <contour>
      <point x="616" y="266"/>
      <point x="590" y="313" type="qcurve" smooth="yes"/>
      <point x="565" y="358"/>
      <point x="492" y="456"/>
      <point x="455" y="503" type="qcurve" smooth="yes"/>
      <point x="423" y="544"/>
      <point x="388" y="525" type="qcurve" smooth="yes"/>
      <point x="352" y="506"/>
      <point x="387" y="458" type="qcurve" smooth="yes"/>
      <point x="420" y="411"/>
      <point x="488" y="312"/>
      <point x="513" y="269" type="qcurve" smooth="yes"/>
      <point x="540" y="222"/>
      <point x="579" y="245" type="qcurve" smooth="yes"/>
    </contour>
  </outline>
</glyph>
<glyph name="uni3117" format="2">
  <advance width="1000" height="1000"/>
  <unicode hex="3117"/>
  <note>
uni3117
</note>
  <outline>
    <contour>
      <point x="475" y="-39"/>
      <point x="475" y="15" type="qcurve" smooth="yes"/>
      <point x="475" y="649" type="line"/>
      <point x="742" y="649" type="line" smooth="yes"/>
      <point x="771" y="649"/>
      <point x="771" y="617" type="qcurve"/>
      <point x="765" y="514"/>
      <point x="753" y="385"/>
      <point x="738" y="318"/>
      <point x="729" y="308" type="qcurve" smooth="yes"/>
      <point x="719" y="296"/>
      <point x="698" y="288"/>
      <point x="682" y="288" type="qcurve" smooth="yes"/>
      <point x="666" y="288"/>
      <point x="640" y="288"/>
      <point x="624" y="289" type="qcurve" smooth="yes"/>
      <point x="583" y="291"/>
      <point x="581" y="247" type="qcurve" smooth="yes"/>
      <point x="580" y="208"/>
      <point x="634" y="207" type="qcurve" smooth="yes"/>
      <point x="659" y="206"/>
      <point x="708" y="207"/>
      <point x="723" y="209" type="qcurve" smooth="yes"/>
      <point x="750" y="212"/>
      <point x="784" y="229"/>
      <point x="799" y="247" type="qcurve" smooth="yes"/>
      <point x="816" y="267"/>
      <point x="838" y="348"/>
      <point x="852" y="458"/>
      <point x="860" y="585"/>
      <point x="863" y="649" type="qcurve" smooth="yes"/>
      <point x="865" y="689"/>
      <point x="824" y="730"/>
      <point x="786" y="730" type="qcurve" smooth="yes"/>
      <point x="172" y="730" type="line" smooth="yes"/>
      <point x="117" y="730"/>
      <point x="117" y="691" type="qcurve" smooth="yes"/>
      <point x="117" y="649"/>
      <point x="172" y="649" type="qcurve" smooth="yes"/>
      <point x="385" y="649" type="line"/>
      <point x="385" y="15" type="line" smooth="yes"/>
      <point x="385" y="-39"/>
      <point x="430" y="-39" type="qcurve" smooth="yes"/>
    </contour>
  </outline>
</glyph>
<glyph name="uni3118" format="2">
  <advance width="1000" height="1000"/>
  <unicode hex="3118"/>
  <note>
uni3118
</note>
  <outline>
    <contour>
      <point x="565" y="-42"/>
      <point x="603" y="-31"/>
      <point x="616" y="-10" type="qcurve" smooth="yes"/>
      <point x="657" y="51"/>
      <point x="736" y="209"/>
      <point x="764" y="292" type="qcurve" smooth="yes"/>
      <point x="778" y="332"/>
      <point x="741" y="380"/>
      <point x="698" y="380" type="qcurve" smooth="yes"/>
      <point x="392" y="380" type="line" smooth="yes"/>
      <point x="375" y="380"/>
      <point x="363" y="398"/>
      <point x="370" y="414" type="qcurve" smooth="yes"/>
      <point x="387" y="449"/>
      <point x="419" y="521"/>
      <point x="435" y="559" type="qcurve"/>
      <point x="852" y="559" type="line" smooth="yes"/>
      <point x="907" y="559"/>
      <point x="907" y="602" type="qcurve" smooth="yes"/>
      <point x="907" y="643"/>
      <point x="852" y="643" type="qcurve" smooth="yes"/>
      <point x="469" y="643" type="line"/>
      <point x="480" y="672"/>
      <point x="503" y="742"/>
      <point x="509" y="762" type="qcurve" smooth="yes"/>
      <point x="516" y="785"/>
      <point x="503" y="816"/>
      <point x="480" y="821" type="qcurve" smooth="yes"/>
      <point x="437" y="831"/>
      <point x="420" y="780" type="qcurve" smooth="yes"/>
      <point x="410" y="746"/>
      <point x="386" y="675"/>
      <point x="374" y="643" type="qcurve"/>
      <point x="123" y="643" type="line" smooth="yes"/>
      <point x="67" y="643"/>
      <point x="67" y="602" type="qcurve" smooth="yes"/>
      <point x="67" y="581"/>
      <point x="97" y="559"/>
      <point x="123" y="559" type="qcurve" smooth="yes"/>
      <point x="343" y="559" type="line"/>
      <point x="327" y="519"/>
      <point x="288" y="437"/>
      <point x="263" y="389" type="qcurve" smooth="yes"/>
      <point x="241" y="348"/>
      <point x="271" y="296"/>
      <point x="317" y="296" type="qcurve" smooth="yes"/>
      <point x="631" y="296" type="line" smooth="yes"/>
      <point x="647" y="296"/>
      <point x="660" y="278"/>
      <point x="654" y="262" type="qcurve" smooth="yes"/>
      <point x="633" y="204"/>
      <point x="570" y="86"/>
      <point x="541" y="37" type="qcurve" smooth="yes"/>
      <point x="528" y="15"/>
      <point x="530" y="-21"/>
      <point x="548" y="-32" type="qcurve" smooth="yes"/>
    </contour>
  </outline>
</glyph>
<glyph name="uni3119" format="2">
  <advance width="1000" height="1000"/>
  <unicode hex="3119"/>
  <note>
uni3119
</note>
  <outline>
    <contour>
      <point x="851" y="-3"/>
      <point x="878" y="17"/>
      <point x="879" y="38" type="qcurve" smooth="yes"/>
      <point x="881" y="76"/>
      <point x="797" y="228" type="qcurve" smooth="yes"/>
      <point x="754" y="308"/>
      <point x="697" y="385"/>
      <point x="680" y="386" type="qcurve" smooth="yes"/>
      <point x="636" y="390"/>
      <point x="633" y="356" type="qcurve" smooth="yes"/>
      <point x="632" y="343"/>
      <point x="644" y="313"/>
      <point x="654" y="294" type="qcurve" smooth="yes"/>
      <point x="707" y="195" type="line"/>
      <point x="263" y="123" type="line" smooth="yes"/>
      <point x="248" y="121"/>
      <point x="239" y="136"/>
      <point x="247" y="147" type="qcurve" smooth="yes"/>
      <point x="277" y="194"/>
      <point x="346" y="324"/>
      <point x="416" y="475"/>
      <point x="481" y="634"/>
      <point x="507" y="709" type="qcurve" smooth="yes"/>
      <point x="526" y="762"/>
      <point x="477" y="776" type="qcurve" smooth="yes"/>
      <point x="430" y="791"/>
      <point x="412" y="737" type="qcurve" smooth="yes"/>
      <point x="394" y="682"/>
      <point x="346" y="558"/>
      <point x="295" y="434"/>
      <point x="246" y="324"/>
      <point x="206" y="243"/>
      <point x="195" y="224" type="qcurve" smooth="yes"/>
      <point x="135" y="124" type="line" smooth="yes"/>
      <point x="107" y="78"/>
      <point x="146" y="21"/>
      <point x="198" y="29" type="qcurve" smooth="yes"/>
      <point x="746" y="117" type="line"/>
      <point x="764" y="80" type="line" smooth="yes"/>
      <point x="784" y="39"/>
      <point x="812" y="-1"/>
      <point x="831" y="-2" type="qcurve" smooth="yes"/>
    </contour>
  </outline>
</glyph>
<glyph name="uni311A" format="2">
  <advance width="1000" height="1000"/>
  <unicode hex="311A"/>
  <note>
uni311A
</note>
  <outline>
    <contour>
      <point x="536" y="-14"/>
      <point x="536" y="41" type="qcurve" smooth="yes"/>
      <point x="536" y="421" type="line"/>
      <point x="602" y="476"/>
      <point x="753" y="616"/>
      <point x="820" y="686" type="qcurve" smooth="yes"/>
      <point x="860" y="729"/>
      <point x="820" y="758" type="qcurve" smooth="yes"/>
      <point x="783" y="784"/>
      <point x="748" y="743" type="qcurve" smooth="yes"/>
      <point x="694" y="682"/>
      <point x="558" y="555"/>
      <point x="497" y="502" type="qcurve"/>
      <point x="471" y="527"/>
      <point x="382" y="608"/>
      <point x="276" y="703"/>
      <point x="224" y="748" type="qcurve" smooth="yes"/>
      <point x="205" y="764"/>
      <point x="166" y="769"/>
      <point x="152" y="755" type="qcurve" smooth="yes"/>
      <point x="124" y="722"/>
      <point x="165" y="686" type="qcurve" smooth="yes"/>
      <point x="215" y="641"/>
      <point x="317" y="544"/>
      <point x="410" y="452"/>
      <point x="445" y="413" type="qcurve"/>
      <point x="445" y="41" type="line" smooth="yes"/>
      <point x="445" y="-14"/>
      <point x="490" y="-14" type="qcurve" smooth="yes"/>
    </contour>
  </outline>
</glyph>
<glyph name="uni311B" format="2">
  <advance width="1000" height="1000"/>
  <unicode hex="311B"/>
  <note>
uni311B
</note>
  <outline>
    <contour>
      <point x="685" y="7"/>
      <point x="814" y="130" type="qcurve"/>
      <point x="750" y="188" type="line"/>
      <point x="695" y="142"/>
      <point x="544" y="93"/>
      <point x="449" y="93" type="qcurve" smooth="yes"/>
      <point x="340" y="93"/>
      <point x="220" y="167"/>
      <point x="220" y="234" type="qcurve" smooth="yes"/>
      <point x="220" y="304"/>
      <point x="368" y="382"/>
      <point x="495" y="377" type="qcurve" smooth="yes"/>
      <point x="554" y="374"/>
      <point x="554" y="428" type="qcurve" smooth="yes"/>
      <point x="554" y="617" type="line"/>
      <point x="836" y="617" type="line"/>
      <point x="836" y="699" type="line"/>
      <point x="137" y="699" type="line"/>
      <point x="137" y="617" type="line"/>
      <point x="464" y="617" type="line"/>
      <point x="464" y="448" type="line"/>
      <point x="364" y="449"/>
      <point x="216" y="396"/>
      <point x="135" y="296"/>
      <point x="135" y="227" type="qcurve" smooth="yes"/>
      <point x="135" y="160"/>
      <point x="214" y="62"/>
      <point x="360" y="8"/>
      <point x="460" y="7" type="qcurve" smooth="yes"/>
    </contour>
  </outline>
</glyph>
<glyph name="uni311C" format="2">
  <advance width="1000" height="1000"/>
  <unicode hex="311C"/>
  <note>
uni311C
</note>
  <outline>
    <contour>
      <point x="686" y="7"/>
      <point x="814" y="126" type="qcurve" smooth="yes"/>
      <point x="834" y="143"/>
      <point x="836" y="179"/>
      <point x="819" y="194" type="qcurve"/>
      <point x="792" y="223"/>
      <point x="750" y="187" type="qcurve" smooth="yes"/>
      <point x="634" y="92"/>
      <point x="449" y="92" type="qcurve" smooth="yes"/>
      <point x="341" y="92"/>
      <point x="220" y="166"/>
      <point x="220" y="233" type="qcurve" smooth="yes"/>
      <point x="220" y="303"/>
      <point x="366" y="369"/>
      <point x="493" y="356" type="qcurve" smooth="yes"/>
      <point x="554" y="351"/>
      <point x="554" y="407" type="qcurve" smooth="yes"/>
      <point x="554" y="569" type="line"/>
      <point x="821" y="569" type="line" smooth="yes"/>
      <point x="847" y="569"/>
      <point x="877" y="591"/>
      <point x="877" y="610" type="qcurve" smooth="yes"/>
      <point x="877" y="650"/>
      <point x="821" y="650" type="qcurve" smooth="yes"/>
      <point x="554" y="650" type="line"/>
      <point x="554" y="729" type="line" smooth="yes"/>
      <point x="554" y="785"/>
      <point x="509" y="785" type="qcurve" smooth="yes"/>
      <point x="464" y="785"/>
      <point x="464" y="729" type="qcurve" smooth="yes"/>
      <point x="464" y="650" type="line"/>
      <point x="154" y="650" type="line" smooth="yes"/>
      <point x="99" y="650"/>
      <point x="99" y="610" type="qcurve" smooth="yes"/>
      <point x="99" y="569"/>
      <point x="154" y="569" type="qcurve" smooth="yes"/>
      <point x="464" y="569" type="line"/>
      <point x="464" y="427" type="line"/>
      <point x="365" y="435"/>
      <point x="217" y="390"/>
      <point x="135" y="295"/>
      <point x="135" y="227" type="qcurve" smooth="yes"/>
      <point x="135" y="161"/>
      <point x="215" y="62"/>
      <point x="361" y="8"/>
      <point x="460" y="7" type="qcurve" smooth="yes"/>
    </contour>
  </outline>
</glyph>
<glyph name="uni311D" format="2">
  <advance width="1000" height="1000"/>
  <unicode hex="311D"/>
  <note>
uni311D
</note>
  <outline>
    <contour>
      <point x="759" y="-4" type="line"/>
      <point x="759" y="77" type="line"/>
      <point x="426" y="77" type="line" smooth="yes"/>
      <point x="378" y="77"/>
      <point x="342" y="116"/>
      <point x="342" y="167" type="qcurve" smooth="yes"/>
      <point x="342" y="457" type="line"/>
      <point x="610" y="457" type="line"/>
      <point x="602" y="402"/>
      <point x="557" y="263"/>
      <point x="541" y="219" type="qcurve"/>
      <point x="623" y="181" type="line"/>
      <point x="642" y="235"/>
      <point x="689" y="394"/>
      <point x="694" y="457" type="qcurve"/>
      <point x="871" y="457" type="line"/>
      <point x="871" y="542" type="line"/>
      <point x="704" y="542" type="line"/>
      <point x="707" y="588"/>
      <point x="709" y="675"/>
      <point x="709" y="714" type="qcurve"/>
      <point x="625" y="715" type="line"/>
      <point x="625" y="676"/>
      <point x="623" y="588"/>
      <point x="619" y="542" type="qcurve"/>
      <point x="342" y="542" type="line"/>
      <point x="342" y="714" type="line"/>
      <point x="255" y="714" type="line"/>
      <point x="255" y="542" type="line"/>
      <point x="95" y="542" type="line"/>
      <point x="95" y="457" type="line"/>
      <point x="255" y="457" type="line"/>
      <point x="255" y="166" type="line" smooth="yes"/>
      <point x="255" y="101"/>
      <point x="289" y="26"/>
      <point x="366" y="-4"/>
      <point x="431" y="-4" type="qcurve" smooth="yes"/>
    </contour>
  </outline>
</glyph>
<glyph name="uni311E" format="2">
  <advance width="1000" height="1000"/>
  <unicode hex="311E"/>
  <note>
uni311E
</note>
  <outline>
    <contour>
      <point x="650" y="-5" type="qcurve"/>
      <point x="731" y="-39" type="line"/>
      <point x="760" y="35"/>
      <point x="824" y="256"/>
      <point x="840" y="339" type="qcurve" smooth="yes"/>
      <point x="848" y="379"/>
      <point x="809" y="424"/>
      <point x="769" y="424" type="qcurve" smooth="yes"/>
      <point x="524" y="424" type="line"/>
      <point x="540" y="480"/>
      <point x="563" y="605"/>
      <point x="570" y="673" type="qcurve"/>
      <point x="844" y="673" type="line"/>
      <point x="844" y="757" type="line"/>
      <point x="105" y="757" type="line"/>
      <point x="105" y="673" type="line"/>
      <point x="485" y="673" type="line"/>
      <point x="478" y="603"/>
      <point x="455" y="479"/>
      <point x="438" y="424" type="qcurve"/>
      <point x="267" y="424" type="line" smooth="yes"/>
      <point x="251" y="424"/>
      <point x="227" y="442"/>
      <point x="234" y="458" type="qcurve"/>
      <point x="292" y="625" type="line"/>
      <point x="208" y="642" type="line"/>
      <point x="199" y="610"/>
      <point x="157" y="484"/>
      <point x="140" y="437" type="qcurve" smooth="yes"/>
      <point x="126" y="395"/>
      <point x="170" y="344"/>
      <point x="213" y="344" type="qcurve" smooth="yes"/>
      <point x="409" y="344" type="line"/>
      <point x="369" y="249"/>
      <point x="244" y="112"/>
      <point x="152" y="64" type="qcurve"/>
      <point x="196" y="-10" type="line"/>
      <point x="307" y="50"/>
      <point x="453" y="223"/>
      <point x="498" y="344" type="qcurve"/>
      <point x="711" y="344" type="line" smooth="yes"/>
      <point x="743" y="344"/>
      <point x="738" y="313" type="qcurve" smooth="yes"/>
      <point x="727" y="244"/>
      <point x="672" y="54"/>
    </contour>
  </outline>
</glyph>
<glyph name="uni311F" format="2">
  <advance width="1000" height="1000"/>
  <unicode hex="311F"/>
  <note>
uni311F
</note>
  <outline>
    <contour>
      <point x="776" y="22"/>
      <point x="821" y="19"/>
      <point x="837" y="39" type="qcurve" smooth="yes"/>
      <point x="853" y="59"/>
      <point x="838" y="103"/>
      <point x="818" y="118" type="qcurve" smooth="yes"/>
      <point x="731" y="182"/>
      <point x="591" y="340"/>
      <point x="482" y="543"/>
      <point x="441" y="672" type="qcurve" smooth="yes"/>
      <point x="427" y="716"/>
      <point x="361" y="735"/>
      <point x="324" y="711" type="qcurve" smooth="yes"/>
      <point x="286" y="686"/>
      <point x="185" y="633"/>
      <point x="138" y="613" type="qcurve" smooth="yes"/>
      <point x="122" y="606"/>
      <point x="98" y="573"/>
      <point x="108" y="549" type="qcurve" smooth="yes"/>
      <point x="116" y="530"/>
      <point x="158" y="522"/>
      <point x="178" y="532" type="qcurve" smooth="yes"/>
      <point x="218" y="552"/>
      <point x="297" y="597"/>
      <point x="331" y="617" type="qcurve" smooth="yes"/>
      <point x="359" y="636"/>
      <point x="370" y="602" type="qcurve" smooth="yes"/>
      <point x="417" y="466"/>
      <point x="534" y="256"/>
      <point x="676" y="97"/>
      <point x="758" y="35" type="qcurve" smooth="yes"/>
    </contour>
  </outline>
</glyph>
<glyph name="uni3120" format="2">
  <advance width="1000" height="1000"/>
  <unicode hex="3120"/>
  <note>
uni3120
</note>
  <outline>
    <contour>
      <point x="882" y="-22"/>
      <point x="882" y="21" type="qcurve" smooth="yes"/>
      <point x="882" y="48"/>
      <point x="796" y="184" type="qcurve" smooth="yes"/>
      <point x="711" y="319"/>
      <point x="679" y="319" type="qcurve" smooth="yes"/>
      <point x="637" y="319"/>
      <point x="637" y="284" type="qcurve" smooth="yes"/>
      <point x="637" y="276"/>
      <point x="650" y="252"/>
      <point x="661" y="235" type="qcurve" smooth="yes"/>
      <point x="678" y="210"/>
      <point x="706" y="166"/>
      <point x="716" y="149" type="qcurve"/>
      <point x="619" y="136"/>
      <point x="409" y="108"/>
      <point x="315" y="96" type="qcurve"/>
      <point x="420" y="185"/>
      <point x="639" y="406"/>
      <point x="736" y="527" type="qcurve" smooth="yes"/>
      <point x="753" y="548"/>
      <point x="754" y="586"/>
      <point x="734" y="599" type="qcurve" smooth="yes"/>
      <point x="718" y="611"/>
      <point x="681" y="601"/>
      <point x="664" y="581" type="qcurve" smooth="yes"/>
      <point x="639" y="547"/>
      <point x="587" y="481"/>
      <point x="560" y="449" type="qcurve"/>
      <point x="285" y="426" type="line"/>
      <point x="348" y="489"/>
      <point x="471" y="633"/>
      <point x="521" y="709" type="qcurve" smooth="yes"/>
      <point x="552" y="755"/>
      <point x="517" y="778" type="qcurve" smooth="yes"/>
      <point x="501" y="789"/>
      <point x="461" y="777"/>
      <point x="446" y="755" type="qcurve" smooth="yes"/>
      <point x="405" y="693"/>
      <point x="318" y="577"/>
      <point x="247" y="492"/>
      <point x="229" y="476" type="qcurve" smooth="yes"/>
      <point x="185" y="433" type="line"/>
      <point x="168" y="419"/>
      <point x="153" y="381"/>
      <point x="157" y="367" type="qcurve" smooth="yes"/>
      <point x="169" y="330"/>
      <point x="221" y="337" type="qcurve" smooth="yes"/>
      <point x="252" y="341"/>
      <point x="380" y="356"/>
      <point x="485" y="367" type="qcurve"/>
      <point x="448" y="327"/>
      <point x="369" y="247"/>
      <point x="298" y="181"/>
      <point x="271" y="160" type="qcurve" smooth="yes"/>
      <point x="246" y="138"/>
      <point x="204" y="104"/>
      <point x="187" y="92" type="qcurve" smooth="yes"/>
      <point x="167" y="79"/>
      <point x="153" y="49"/>
      <point x="156" y="32" type="qcurve" smooth="yes"/>
      <point x="159" y="14"/>
      <point x="195" y="-2"/>
      <point x="223" y="2" type="qcurve" smooth="yes"/>
      <point x="253" y="7"/>
      <point x="379" y="25"/>
      <point x="594" y="56"/>
      <point x="757" y="78" type="qcurve"/>
      <point x="773" y="49" type="line" smooth="yes"/>
      <point x="786" y="23"/>
      <point x="803" y="-6"/>
      <point x="807" y="-10" type="qcurve" smooth="yes"/>
      <point x="816" y="-22"/>
      <point x="836" y="-22" type="qcurve" smooth="yes"/>
    </contour>
  </outline>
</glyph>
<glyph name="uni3121" format="2">
  <advance width="1000" height="1000"/>
  <unicode hex="3121"/>
  <note>
uni3121
</note>
  <outline>
    <contour>
      <point x="391" y="65"/>
      <point x="547" y="218" type="qcurve"/>
      <point x="608" y="159"/>
      <point x="707" y="54"/>
      <point x="745" y="7" type="qcurve" smooth="yes"/>
      <point x="763" y="-15"/>
      <point x="805" y="-28"/>
      <point x="823" y="-12" type="qcurve" smooth="yes"/>
      <point x="842" y="3"/>
      <point x="838" y="48"/>
      <point x="821" y="68" type="qcurve" smooth="yes"/>
      <point x="780" y="117"/>
      <point x="671" y="227"/>
      <point x="609" y="284" type="qcurve"/>
      <point x="745" y="437"/>
      <point x="819" y="628" type="qcurve" smooth="yes"/>
      <point x="836" y="669"/>
      <point x="799" y="717"/>
      <point x="756" y="717" type="qcurve" smooth="yes"/>
      <point x="211" y="717" type="line" smooth="yes"/>
      <point x="156" y="717"/>
      <point x="156" y="675" type="qcurve" smooth="yes"/>
      <point x="156" y="633"/>
      <point x="211" y="633" type="qcurve" smooth="yes"/>
      <point x="688" y="633" type="line" smooth="yes"/>
      <point x="705" y="633"/>
      <point x="718" y="615"/>
      <point x="711" y="599" type="qcurve" smooth="yes"/>
      <point x="651" y="466"/>
      <point x="542" y="342" type="qcurve"/>
      <point x="444" y="428"/>
      <point x="349" y="502" type="qcurve"/>
      <point x="328" y="516"/>
      <point x="289" y="521"/>
      <point x="275" y="507" type="qcurve"/>
      <point x="249" y="475"/>
      <point x="292" y="441" type="qcurve" smooth="yes"/>
      <point x="373" y="378"/>
      <point x="481" y="280" type="qcurve"/>
      <point x="405" y="208"/>
      <point x="239" y="96"/>
      <point x="149" y="58" type="qcurve" smooth="yes"/>
      <point x="133" y="51"/>
      <point x="105" y="17"/>
      <point x="114" y="-5" type="qcurve" smooth="yes"/>
      <point x="124" y="-28"/>
      <point x="167" y="-34"/>
      <point x="189" y="-25" type="qcurve" smooth="yes"/>
    </contour>
  </outline>
</glyph>
<glyph name="uni3122" format="2">
  <advance width="1000" height="1000"/>
  <unicode hex="3122"/>
  <note>
uni3122
</note>
  <outline>
    <contour>
      <point x="703" y="-45"/>
      <point x="729" y="4" type="qcurve" smooth="yes"/>
      <point x="764" y="66"/>
      <point x="825" y="223"/>
      <point x="847" y="306" type="qcurve" smooth="yes"/>
      <point x="858" y="346"/>
      <point x="819" y="392"/>
      <point x="778" y="392" type="qcurve" smooth="yes"/>
      <point x="695" y="392" type="line"/>
      <point x="716" y="455"/>
      <point x="757" y="593"/>
      <point x="773" y="657" type="qcurve" smooth="yes"/>
      <point x="784" y="698"/>
      <point x="746" y="743"/>
      <point x="705" y="743" type="qcurve" smooth="yes"/>
      <point x="191" y="743" type="line" smooth="yes"/>
      <point x="137" y="743"/>
      <point x="137" y="703" type="qcurve" smooth="yes"/>
      <point x="137" y="663"/>
      <point x="191" y="663" type="qcurve" smooth="yes"/>
      <point x="651" y="663" type="line" smooth="yes"/>
      <point x="667" y="663"/>
      <point x="681" y="645"/>
      <point x="677" y="631" type="qcurve" smooth="yes"/>
      <point x="661" y="574"/>
      <point x="624" y="448"/>
      <point x="605" y="392" type="qcurve"/>
      <point x="317" y="392" type="line" smooth="yes"/>
      <point x="301" y="392"/>
      <point x="288" y="411"/>
      <point x="295" y="426" type="qcurve" smooth="yes"/>
      <point x="309" y="458"/>
      <point x="336" y="526"/>
      <point x="348" y="560" type="qcurve" smooth="yes"/>
      <point x="356" y="585"/>
      <point x="346" y="619"/>
      <point x="322" y="626" type="qcurve" smooth="yes"/>
      <point x="281" y="636"/>
      <point x="262" y="583" type="qcurve" smooth="yes"/>
      <point x="242" y="531"/>
      <point x="210" y="449"/>
      <point x="190" y="405" type="qcurve" smooth="yes"/>
      <point x="173" y="364"/>
      <point x="201" y="312"/>
      <point x="246" y="312" type="qcurve" smooth="yes"/>
      <point x="722" y="312" type="line" smooth="yes"/>
      <point x="737" y="312"/>
      <point x="751" y="295"/>
      <point x="746" y="279" type="qcurve" smooth="yes"/>
      <point x="728" y="219"/>
      <point x="679" y="94"/>
      <point x="653" y="40" type="qcurve" smooth="yes"/>
      <point x="643" y="18"/>
      <point x="643" y="-13"/>
      <point x="662" y="-24" type="qcurve" smooth="yes"/>
    </contour>
  </outline>
</glyph>
<glyph name="uni3123" format="2">
  <advance width="1000" height="1000"/>
  <unicode hex="3123"/>
  <note>
uni3123
</note>
  <outline>
    <contour>
      <point x="621" y="9" type="qcurve"/>
      <point x="697" y="-25" type="line"/>
      <point x="731" y="45"/>
      <point x="824" y="272"/>
      <point x="849" y="369" type="qcurve" smooth="yes"/>
      <point x="859" y="410"/>
      <point x="820" y="455"/>
      <point x="779" y="455" type="qcurve" smooth="yes"/>
      <point x="294" y="455" type="line" smooth="yes"/>
      <point x="277" y="455"/>
      <point x="266" y="473"/>
      <point x="273" y="489" type="qcurve" smooth="yes"/>
      <point x="300" y="542"/>
      <point x="379" y="690"/>
      <point x="399" y="749" type="qcurve"/>
      <point x="309" y="770" type="line"/>
      <point x="293" y="709"/>
      <point x="212" y="553"/>
      <point x="168" y="470" type="qcurve" smooth="yes"/>
      <point x="146" y="429"/>
      <point x="175" y="376"/>
      <point x="221" y="376" type="qcurve" smooth="yes"/>
      <point x="729" y="376" type="line" smooth="yes"/>
      <point x="744" y="376"/>
      <point x="758" y="358"/>
      <point x="754" y="343" type="qcurve" smooth="yes"/>
      <point x="735" y="269"/>
      <point x="649" y="74"/>
    </contour>
  </outline>
</glyph>
<glyph name="uni3125" format="2">
  <advance width="1000" height="1000"/>
  <unicode hex="3125"/>
  <note>
uni3125
</note>
  <outline>
    <contour>
      <point x="221" y="8"/>
      <point x="321" y="13"/>
      <point x="409" y="15" type="qcurve" smooth="yes"/>
      <point x="480" y="17"/>
      <point x="691" y="24"/>
      <point x="824" y="28" type="qcurve" smooth="yes"/>
      <point x="869" y="30"/>
      <point x="869" y="72" type="qcurve" smooth="yes"/>
      <point x="869" y="113"/>
      <point x="823" y="111" type="qcurve" smooth="yes"/>
      <point x="688" y="108"/>
      <point x="416" y="101"/>
      <point x="280" y="98" type="qcurve" smooth="yes"/>
      <point x="262" y="97"/>
      <point x="251" y="118"/>
      <point x="261" y="133" type="qcurve" smooth="yes"/>
      <point x="338" y="249"/>
      <point x="489" y="537"/>
      <point x="552" y="690" type="qcurve" smooth="yes"/>
      <point x="563" y="715"/>
      <point x="550" y="753"/>
      <point x="527" y="759" type="qcurve" smooth="yes"/>
      <point x="480" y="773"/>
      <point x="461" y="720" type="qcurve" smooth="yes"/>
      <point x="429" y="635"/>
      <point x="354" y="472"/>
      <point x="282" y="331"/>
      <point x="223" y="230"/>
      <point x="207" y="207" type="qcurve" smooth="yes"/>
      <point x="188" y="179"/>
      <point x="155" y="133"/>
      <point x="143" y="116" type="qcurve" smooth="yes"/>
      <point x="124" y="90"/>
      <point x="122" y="40"/>
      <point x="157" y="7"/>
      <point x="193" y="8" type="qcurve" smooth="yes"/>
    </contour>
  </outline>
</glyph>
<glyph name="uni3126" format="2">
  <advance width="1000" height="1000"/>
  <unicode hex="3126"/>
  <note>
uni3126
</note>
  <outline>
    <contour>
      <point x="882" y="4" type="line"/>
      <point x="882" y="88" type="line"/>
      <point x="696" y="88" type="line" smooth="yes"/>
      <point x="668" y="88"/>
      <point x="646" y="119"/>
      <point x="646" y="162" type="qcurve" smooth="yes"/>
      <point x="646" y="758" type="line"/>
      <point x="556" y="758" type="line"/>
      <point x="556" y="167" type="line" smooth="yes"/>
      <point x="556" y="105"/>
      <point x="582" y="33"/>
      <point x="644" y="4"/>
      <point x="698" y="4" type="qcurve" smooth="yes"/>
    </contour>
    <contour>
      <point x="226" y="39"/>
      <point x="328" y="156"/>
      <point x="374" y="286"/>
      <point x="390" y="422"/>
      <point x="390" y="490" type="qcurve" smooth="yes"/>
      <point x="390" y="757" type="line"/>
      <point x="302" y="757" type="line"/>
      <point x="302" y="490" type="line" smooth="yes"/>
      <point x="302" y="435"/>
      <point x="289" y="321"/>
      <point x="250" y="210"/>
      <point x="163" y="109"/>
      <point x="99" y="66" type="qcurve"/>
      <point x="150" y="-11" type="line"/>
    </contour>
  </outline>
</glyph>
<glyph name="uni3127" format="2">
  <advance width="1000" height="1000"/>
  <unicode hex="3127"/>
  <note>
uni3127
</note>
  <outline>
    <contour>
      <point x="846" y="333" type="line" smooth="yes"/>
      <point x="904" y="333"/>
      <point x="904" y="377" type="qcurve" smooth="yes"/>
      <point x="904" y="420"/>
      <point x="846" y="420" type="qcurve" smooth="yes"/>
      <point x="154" y="420" type="line" smooth="yes"/>
      <point x="95" y="420"/>
      <point x="95" y="378" type="qcurve" smooth="yes"/>
      <point x="95" y="333"/>
      <point x="154" y="333" type="qcurve" smooth="yes"/>
    </contour>
  </outline>
</glyph>
<glyph name="uni3128" format="2">
  <advance width="1000" height="1000"/>
  <unicode hex="3128"/>
  <note>
uni3128
</note>
  <outline>
    <contour>
      <point x="306" y="72"/>
      <point x="464" y="218"/>
      <point x="533" y="300" type="qcurve"/>
      <point x="604" y="224"/>
      <point x="710" y="98"/>
      <point x="752" y="41" type="qcurve" smooth="yes"/>
      <point x="769" y="17"/>
      <point x="816" y="9"/>
      <point x="833" y="25" type="qcurve" smooth="yes"/>
      <point x="849" y="40"/>
      <point x="853" y="80"/>
      <point x="838" y="103" type="qcurve"/>
      <point x="795" y="159"/>
      <point x="671" y="298"/>
      <point x="594" y="377" type="qcurve"/>
      <point x="701" y="525"/>
      <point x="785" y="698" type="qcurve" smooth="yes"/>
      <point x="809" y="750"/>
      <point x="766" y="764" type="qcurve" smooth="yes"/>
      <point x="725" y="780"/>
      <point x="700" y="730" type="qcurve" smooth="yes"/>
      <point x="633" y="586"/>
      <point x="529" y="440" type="qcurve"/>
      <point x="468" y="499"/>
      <point x="341" y="617"/>
      <point x="282" y="669" type="qcurve" smooth="yes"/>
      <point x="263" y="687"/>
      <point x="224" y="694"/>
      <point x="209" y="677" type="qcurve" smooth="yes"/>
      <point x="194" y="663"/>
      <point x="203" y="625"/>
      <point x="223" y="606" type="qcurve" smooth="yes"/>
      <point x="288" y="548"/>
      <point x="413" y="426"/>
      <point x="472" y="365" type="qcurve"/>
      <point x="403" y="284"/>
      <point x="246" y="144"/>
      <point x="162" y="91" type="qcurve"/>
      <point x="149" y="81"/>
      <point x="135" y="43"/>
      <point x="146" y="23" type="qcurve" smooth="yes"/>
      <point x="156" y="4"/>
      <point x="199" y="-2"/>
      <point x="220" y="11" type="qcurve"/>
    </contour>
  </outline>
</glyph>
<glyph name="uni3129" format="2">
  <advance width="1000" height="1000"/>
  <unicode hex="3129"/>
  <note>
uni3129
</note>
  <outline>
    <contour>
      <point x="765" y="13" type="line" smooth="yes"/>
      <point x="843" y="13"/>
      <point x="843" y="92" type="qcurve" smooth="yes"/>
      <point x="843" y="707" type="line" smooth="yes"/>
      <point x="843" y="733"/>
      <point x="819" y="761"/>
      <point x="799" y="761" type="qcurve" smooth="yes"/>
      <point x="755" y="761"/>
      <point x="755" y="707" type="qcurve" smooth="yes"/>
      <point x="755" y="124" type="line" smooth="yes"/>
      <point x="755" y="97"/>
      <point x="729" y="97" type="qcurve" smooth="yes"/>
      <point x="270" y="97" type="line" smooth="yes"/>
      <point x="240" y="97"/>
      <point x="240" y="126" type="qcurve" smooth="yes"/>
      <point x="240" y="703" type="line" smooth="yes"/>
      <point x="240" y="762"/>
      <point x="195" y="762" type="qcurve" smooth="yes"/>
      <point x="152" y="762"/>
      <point x="152" y="703" type="qcurve" smooth="yes"/>
      <point x="152" y="92" type="line" smooth="yes"/>
      <point x="152" y="54"/>
      <point x="196" y="12"/>
      <point x="236" y="13" type="qcurve" smooth="yes"/>
    </contour>
  </outline>
</glyph>
<glyph name="uni312C" format="2">
  <advance width="1000" height="1000"/>
  <unicode hex="312C"/>
  <note>
uni312C
</note>
  <outline>
    <contour>
      <point x="112" y="-5"/>
      <point x="149" y="1"/>
      <point x="162" y="22" type="qcurve" smooth="yes"/>
      <point x="200" y="78"/>
      <point x="238" y="208"/>
      <point x="252" y="340"/>
      <point x="252" y="397" type="qcurve" smooth="yes"/>
      <point x="252" y="531" type="line" smooth="yes"/>
      <point x="252" y="560"/>
      <point x="281" y="560" type="qcurve" smooth="yes"/>
      <point x="822" y="560" type="line" smooth="yes"/>
      <point x="871" y="560"/>
      <point x="871" y="603" type="qcurve" smooth="yes"/>
      <point x="871" y="644"/>
      <point x="822" y="644" type="qcurve" smooth="yes"/>
      <point x="582" y="644" type="line"/>
      <point x="578" y="675"/>
      <point x="564" y="729"/>
      <point x="553" y="760" type="qcurve" smooth="yes"/>
      <point x="544" y="784"/>
      <point x="507" y="802"/>
      <point x="484" y="798" type="qcurve" smooth="yes"/>
      <point x="464" y="794"/>
      <point x="450" y="753"/>
      <point x="460" y="727" type="qcurve" smooth="yes"/>
      <point x="468" y="704"/>
      <point x="482" y="664"/>
      <point x="486" y="644" type="qcurve"/>
      <point x="241" y="644" type="line" smooth="yes"/>
      <point x="163" y="644"/>
      <point x="163" y="566" type="qcurve" smooth="yes"/>
      <point x="163" y="398" type="line" smooth="yes"/>
      <point x="163" y="349"/>
      <point x="155" y="240"/>
      <point x="126" y="131"/>
      <point x="94" y="82" type="qcurve" smooth="yes"/>
      <point x="83" y="66"/>
      <point x="76" y="25"/>
      <point x="95" y="8" type="qcurve" smooth="yes"/>
    </contour>
  </outline>
</glyph>
<glyph name="uni312E" format="2">
  <advance width="1000" height="1000"/>
  <unicode hex="312E"/>
  <note>
uni312E
</note>
  <outline>
    <contour>
      <point x="520" y="695"/>
      <point x="559" y="734"/>
      <point x="559" y="761" type="qcurve" smooth="yes"/>
      <point x="559" y="788"/>
      <point x="520" y="827"/>
      <point x="493" y="827" type="qcurve" smooth="yes"/>
      <point x="466" y="827"/>
      <point x="428" y="788"/>
      <point x="428" y="761" type="qcurve" smooth="yes"/>
      <point x="428" y="734"/>
      <point x="466" y="695"/>
      <point x="493" y="695" type="qcurve" smooth="yes"/>
    </contour>
    <contour>
      <point x="702" y="0" type="line" smooth="yes"/>
      <point x="712" y="0"/>
      <point x="755" y="1"/>
      <point x="776" y="2" type="qcurve" smooth="yes"/>
      <point x="818" y="2"/>
      <point x="818" y="42" type="qcurve" smooth="yes"/>
      <point x="816" y="81"/>
      <point x="774" y="81" type="qcurve" smooth="yes"/>
      <point x="752" y="80"/>
      <point x="707" y="79"/>
      <point x="696" y="79" type="qcurve" smooth="yes"/>
      <point x="321" y="79" type="line" smooth="yes"/>
      <point x="275" y="79"/>
      <point x="239" y="105"/>
      <point x="239" y="139" type="qcurve" smooth="yes"/>
      <point x="239" y="310" type="line" smooth="yes"/>
      <point x="239" y="340"/>
      <point x="269" y="340" type="qcurve" smooth="yes"/>
      <point x="471" y="340" type="line" smooth="yes"/>
      <point x="549" y="340"/>
      <point x="549" y="418" type="qcurve" smooth="yes"/>
      <point x="549" y="555" type="line"/>
      <point x="851" y="555" type="line" smooth="yes"/>
      <point x="877" y="555"/>
      <point x="905" y="577"/>
      <point x="905" y="596" type="qcurve" smooth="yes"/>
      <point x="905" y="636"/>
      <point x="851" y="636" type="qcurve" smooth="yes"/>
      <point x="130" y="636" type="line" smooth="yes"/>
      <point x="75" y="636"/>
      <point x="75" y="596" type="qcurve" smooth="yes"/>
      <point x="75" y="577"/>
      <point x="104" y="555"/>
      <point x="130" y="555" type="qcurve" smooth="yes"/>
      <point x="460" y="555" type="line"/>
      <point x="460" y="445" type="line" smooth="yes"/>
      <point x="460" y="416"/>
      <point x="431" y="416" type="qcurve" smooth="yes"/>
      <point x="233" y="416" type="line" smooth="yes"/>
      <point x="196" y="416"/>
      <point x="155" y="376"/>
      <point x="155" y="338" type="qcurve" smooth="yes"/>
      <point x="155" y="143" type="line" smooth="yes"/>
      <point x="155" y="89"/>
      <point x="187" y="26"/>
      <point x="265" y="0"/>
      <point x="333" y="0" type="qcurve" smooth="yes"/>
    </contour>
  </outline>
</glyph>
<glyph name="a-bopomofo" format="2">
  <advance width="1000" height="1000"/>
  <note>
uni311A
</note>
  <outline>
    <contour>
      <point x="461" y="380"/>
      <point x="460" y="364"/>
      <point x="460" y="357" type="qcurve" smooth="yes"/>
      <point x="460" y="-117" type="line" smooth="yes"/>
      <point x="460" y="-155"/>
      <point x="499" y="-155" type="qcurve" smooth="yes"/>
      <point x="520" y="-155"/>
      <point x="537" y="-138"/>
      <point x="537" y="-117" type="qcurve" smooth="yes"/>
      <point x="537" y="350" type="line" smooth="yes"/>
      <point x="537" y="379"/>
      <point x="551" y="409"/>
      <point x="572" y="426" type="qcurve" smooth="yes"/>
      <point x="611" y="457"/>
      <point x="696" y="528"/>
      <point x="744" y="569" type="qcurve" smooth="yes"/>
      <point x="839" y="652"/>
      <point x="849" y="666" type="qcurve" smooth="yes"/>
      <point x="861" y="682"/>
      <point x="861" y="695" type="qcurve" smooth="yes"/>
      <point x="861" y="709"/>
      <point x="838" y="730"/>
      <point x="827" y="730" type="qcurve" smooth="yes"/>
      <point x="806" y="730"/>
      <point x="769" y="694" type="qcurve" smooth="yes"/>
      <point x="733" y="658"/>
      <point x="499" y="460" type="qcurve"/>
      <point x="398" y="551"/>
      <point x="304" y="631" type="qcurve" smooth="yes"/>
      <point x="257" y="671"/>
      <point x="205" y="715"/>
      <point x="198" y="719" type="qcurve" smooth="yes"/>
      <point x="184" y="727"/>
      <point x="172" y="727" type="qcurve" smooth="yes"/>
      <point x="164" y="727"/>
      <point x="146" y="713"/>
      <point x="137" y="690"/>
      <point x="145" y="663"/>
      <point x="163" y="649" type="qcurve" smooth="yes"/>
      <point x="242" y="585"/>
      <point x="390" y="455"/>
      <point x="462" y="389" type="qcurve"/>
    </contour>
  </outline>
</glyph>
<glyph name="ai-bopomofo" format="2">
  <advance width="1000" height="1000"/>
  <note>
uni311E
</note>
  <outline>
    <contour>
      <point x="498" y="469"/>
      <point x="468" y="370" type="qcurve"/>
      <point x="236" y="370" type="line" smooth="yes"/>
      <point x="218" y="370"/>
      <point x="222" y="386" type="qcurve" smooth="yes"/>
      <point x="257" y="527" type="line" smooth="yes"/>
      <point x="260" y="537"/>
      <point x="260" y="546" type="qcurve" smooth="yes"/>
      <point x="260" y="578"/>
      <point x="223" y="578" type="qcurve" smooth="yes"/>
      <point x="196" y="578"/>
      <point x="187" y="544" type="qcurve" smooth="yes"/>
      <point x="146" y="382" type="line" smooth="yes"/>
      <point x="142" y="368"/>
      <point x="139" y="338"/>
      <point x="151" y="314"/>
      <point x="182" y="299"/>
      <point x="211" y="301" type="qcurve"/>
      <point x="441" y="301" type="line"/>
      <point x="356" y="104"/>
      <point x="181" y="-28" type="qcurve" smooth="yes"/>
      <point x="144" y="-56"/>
      <point x="144" y="-72" type="qcurve" smooth="yes"/>
      <point x="144" y="-88"/>
      <point x="155" y="-102" type="qcurve" smooth="yes"/>
      <point x="165" y="-115"/>
      <point x="179" y="-115" type="qcurve" smooth="yes"/>
      <point x="215" y="-115"/>
      <point x="333" y="6" type="qcurve" smooth="yes"/>
      <point x="452" y="128"/>
      <point x="521" y="301" type="qcurve"/>
      <point x="746" y="301" type="line" smooth="yes"/>
      <point x="760" y="301"/>
      <point x="760" y="288" type="qcurve" smooth="yes"/>
      <point x="760" y="268"/>
      <point x="719" y="151" type="qcurve" smooth="yes"/>
      <point x="679" y="38"/>
      <point x="611" y="-84" type="qcurve" smooth="yes"/>
      <point x="603" y="-99"/>
      <point x="603" y="-127"/>
      <point x="616" y="-136" type="qcurve" smooth="yes"/>
      <point x="646" y="-157"/>
      <point x="669" y="-134" type="qcurve" smooth="yes"/>
      <point x="680" y="-123"/>
      <point x="724" y="-30" type="qcurve" smooth="yes"/>
      <point x="746" y="16"/>
      <point x="784" y="114"/>
      <point x="801" y="167" type="qcurve" smooth="yes"/>
      <point x="836" y="275"/>
      <point x="836" y="306" type="qcurve" smooth="yes"/>
      <point x="836" y="370"/>
      <point x="758" y="370" type="qcurve" smooth="yes"/>
      <point x="545" y="370" type="line"/>
      <point x="576" y="474"/>
      <point x="599" y="624" type="qcurve"/>
      <point x="873" y="624" type="line" smooth="yes"/>
      <point x="911" y="624"/>
      <point x="911" y="659" type="qcurve" smooth="yes"/>
      <point x="911" y="675"/>
      <point x="890" y="694"/>
      <point x="872" y="694" type="qcurve" smooth="yes"/>
      <point x="127" y="694" type="line" smooth="yes"/>
      <point x="89" y="694"/>
      <point x="89" y="659" type="qcurve" smooth="yes"/>
      <point x="89" y="624"/>
      <point x="128" y="624" type="qcurve" smooth="yes"/>
      <point x="525" y="624" type="line"/>
    </contour>
  </outline>
</glyph>
<glyph name="an-bopomofo" format="2">
  <advance width="1000" height="1000"/>
  <note>
uni3122
</note>
  <outline>
    <contour>
      <point x="268" y="334" type="line" smooth="yes"/>
      <point x="251" y="334"/>
      <point x="256" y="349" type="qcurve" smooth="yes"/>
      <point x="298" y="494" type="line" smooth="yes"/>
      <point x="301" y="504"/>
      <point x="301" y="512" type="qcurve" smooth="yes"/>
      <point x="301" y="549"/>
      <point x="264" y="549" type="qcurve" smooth="yes"/>
      <point x="234" y="549"/>
      <point x="224" y="510" type="qcurve" smooth="yes"/>
      <point x="181" y="356" type="line" smooth="yes"/>
      <point x="175" y="336"/>
      <point x="175" y="319" type="qcurve" smooth="yes"/>
      <point x="175" y="259"/>
      <point x="247" y="259" type="qcurve" smooth="yes"/>
      <point x="765" y="259" type="line" smooth="yes"/>
      <point x="783" y="259"/>
      <point x="797" y="253"/>
      <point x="797" y="245" type="qcurve" smooth="yes"/>
      <point x="797" y="227"/>
      <point x="752" y="125" type="qcurve" smooth="yes"/>
      <point x="707" y="23"/>
      <point x="638" y="-58" type="qcurve" smooth="yes"/>
      <point x="613" y="-88"/>
      <point x="613" y="-119"/>
      <point x="626" y="-130" type="qcurve" smooth="yes"/>
      <point x="640" y="-142"/>
      <point x="664" y="-142"/>
      <point x="681" y="-126" type="qcurve" smooth="yes"/>
      <point x="709" y="-98"/>
      <point x="756" y="-27" type="qcurve" smooth="yes"/>
      <point x="779" y="8"/>
      <point x="822" y="91"/>
      <point x="842" y="141" type="qcurve" smooth="yes"/>
      <point x="882" y="239"/>
      <point x="882" y="265" type="qcurve" smooth="yes"/>
      <point x="882" y="295"/>
      <point x="838" y="334"/>
      <point x="804" y="334" type="qcurve" smooth="yes"/>
      <point x="684" y="334" type="line"/>
      <point x="757" y="612" type="line" smooth="yes"/>
      <point x="762" y="634"/>
      <point x="762" y="647" type="qcurve" smooth="yes"/>
      <point x="762" y="708"/>
      <point x="682" y="708" type="qcurve" smooth="yes"/>
      <point x="156" y="708" type="line" smooth="yes"/>
      <point x="137" y="709"/>
      <point x="118" y="686"/>
      <point x="118" y="657"/>
      <point x="137" y="633"/>
      <point x="156" y="635" type="qcurve"/>
      <point x="667" y="635" type="line" smooth="yes"/>
      <point x="685" y="635"/>
      <point x="681" y="617" type="qcurve" smooth="yes"/>
      <point x="604" y="334" type="line"/>
    </contour>
  </outline>
</glyph>
<glyph name="ang-bopomofo" format="2">
  <advance width="1000" height="1000"/>
  <note>
uni3124
</note>
  <outline>
    <contour>
      <point x="475" y="716" type="line" smooth="yes"/>
      <point x="475" y="753"/>
      <point x="437" y="753" type="qcurve" smooth="yes"/>
      <point x="399" y="753"/>
      <point x="399" y="716" type="qcurve" smooth="yes"/>
      <point x="399" y="650"/>
      <point x="399" y="560"/>
      <point x="398" y="534" type="qcurve"/>
      <point x="120" y="534" type="line" smooth="yes"/>
      <point x="105" y="534"/>
      <point x="85" y="513"/>
      <point x="85" y="498" type="qcurve" smooth="yes"/>
      <point x="85" y="461"/>
      <point x="120" y="461" type="qcurve" smooth="yes"/>
      <point x="395" y="461" type="line"/>
      <point x="386" y="296"/>
      <point x="320" y="176" type="qcurve" smooth="yes"/>
      <point x="256" y="57"/>
      <point x="105" y="-53" type="qcurve" smooth="yes"/>
      <point x="74" y="-75"/>
      <point x="74" y="-102" type="qcurve" smooth="yes"/>
      <point x="74" y="-116"/>
      <point x="97" y="-134"/>
      <point x="111" y="-134" type="qcurve" smooth="yes"/>
      <point x="149" y="-134"/>
      <point x="259" y="-30" type="qcurve" smooth="yes"/>
      <point x="368" y="73"/>
      <point x="418" y="195" type="qcurve" smooth="yes"/>
      <point x="467" y="316"/>
      <point x="472" y="461" type="qcurve"/>
      <point x="527" y="461" type="line"/>
      <point x="527" y="-14" type="line" smooth="yes"/>
      <point x="527" y="-62"/>
      <point x="554" y="-100"/>
      <point x="579" y="-105" type="qcurve" smooth="yes"/>
      <point x="604" y="-111"/>
      <point x="686" y="-111" type="qcurve" smooth="yes"/>
      <point x="768" y="-111"/>
      <point x="819" y="-108" type="qcurve" smooth="yes"/>
      <point x="844" y="-107"/>
      <point x="877" y="-105"/>
      <point x="898" y="-102"/>
      <point x="910" y="-98"/>
      <point x="915" y="-93" type="qcurve" smooth="yes"/>
      <point x="925" y="-84"/>
      <point x="925" y="-66" type="qcurve" smooth="yes"/>
      <point x="925" y="-30"/>
      <point x="883" y="-30" type="qcurve" smooth="yes"/>
      <point x="810" y="-34" type="line" smooth="yes"/>
      <point x="768" y="-37"/>
      <point x="692" y="-37"/>
      <point x="658" y="-35" type="qcurve" smooth="yes"/>
      <point x="641" y="-34"/>
      <point x="622" y="-34"/>
      <point x="619" y="-33" type="qcurve" smooth="yes"/>
      <point x="613" y="-32"/>
      <point x="606" y="-22"/>
      <point x="606" y="-9" type="qcurve" smooth="yes"/>
      <point x="606" y="461" type="line"/>
      <point x="875" y="461" type="line" smooth="yes"/>
      <point x="910" y="461"/>
      <point x="910" y="497" type="qcurve" smooth="yes"/>
      <point x="910" y="534"/>
      <point x="875" y="534" type="qcurve" smooth="yes"/>
      <point x="474" y="534" type="line"/>
    </contour>
  </outline>
</glyph>
<glyph name="au-bopomofo" format="2">
  <advance width="1000" height="1000"/>
  <note>
uni3120
</note>
  <outline>
    <contour>
      <point x="323" y="207"/>
      <point x="208" y="91"/>
      <point x="183" y="68" type="qcurve" smooth="yes"/>
      <point x="134" y="25"/>
      <point x="134" y="-14" type="qcurve" smooth="yes"/>
      <point x="134" y="-37"/>
      <point x="173" y="-64"/>
      <point x="209" y="-64" type="qcurve" smooth="yes"/>
      <point x="219" y="-64"/>
      <point x="365" y="-52" type="qcurve" smooth="yes"/>
      <point x="439" y="-46"/>
      <point x="629" y="-28"/>
      <point x="747" y="-17" type="qcurve"/>
      <point x="759" y="-37"/>
      <point x="779" y="-75"/>
      <point x="787" y="-92" type="qcurve" smooth="yes"/>
      <point x="803" y="-126"/>
      <point x="827" y="-126" type="qcurve" smooth="yes"/>
      <point x="839" y="-126"/>
      <point x="866" y="-108"/>
      <point x="866" y="-89" type="qcurve" smooth="yes"/>
      <point x="866" y="-70"/>
      <point x="838" y="-20" type="qcurve" smooth="yes"/>
      <point x="824" y="5"/>
      <point x="778" y="81"/>
      <point x="744" y="133" type="qcurve" smooth="yes"/>
      <point x="677" y="238"/>
      <point x="665" y="250" type="qcurve"/>
      <point x="657" y="261"/>
      <point x="636" y="265"/>
      <point x="617" y="257"/>
      <point x="603" y="239"/>
      <point x="602" y="227" type="qcurve" smooth="yes"/>
      <point x="602" y="211"/>
      <point x="626" y="177" type="qcurve" smooth="yes"/>
      <point x="639" y="160"/>
      <point x="679" y="98"/>
      <point x="707" y="52" type="qcurve"/>
      <point x="628" y="44"/>
      <point x="476" y="29"/>
      <point x="402" y="23" type="qcurve" smooth="yes"/>
      <point x="256" y="11"/>
      <point x="246" y="11" type="qcurve" smooth="yes"/>
      <point x="237" y="11"/>
      <point x="237" y="20"/>
      <point x="242" y="25" type="qcurve" smooth="yes"/>
      <point x="345" y="125"/>
      <point x="498" y="279"/>
      <point x="549" y="334" type="qcurve" smooth="yes"/>
      <point x="694" y="488" type="line" smooth="yes"/>
      <point x="737" y="534"/>
      <point x="746" y="549" type="qcurve" smooth="yes"/>
      <point x="756" y="565"/>
      <point x="756" y="578" type="qcurve" smooth="yes"/>
      <point x="756" y="592"/>
      <point x="733" y="612"/>
      <point x="721" y="612" type="qcurve" smooth="yes"/>
      <point x="699" y="612"/>
      <point x="672" y="580" type="qcurve" smooth="yes"/>
      <point x="621" y="522"/>
      <point x="528" y="418"/>
      <point x="483" y="372" type="qcurve"/>
      <point x="387" y="369"/>
      <point x="316" y="369" type="qcurve" smooth="yes"/>
      <point x="244" y="369"/>
      <point x="239" y="370" type="qcurve" smooth="yes"/>
      <point x="227" y="374"/>
      <point x="236" y="386" type="qcurve"/>
      <point x="271" y="425"/>
      <point x="340" y="509"/>
      <point x="375" y="554" type="qcurve" smooth="yes"/>
      <point x="410" y="600"/>
      <point x="453" y="655"/>
      <point x="460" y="666" type="qcurve" smooth="yes"/>
      <point x="475" y="687"/>
      <point x="475" y="703" type="qcurve" smooth="yes"/>
      <point x="475" y="718"/>
      <point x="449" y="739"/>
      <point x="438" y="739" type="qcurve" smooth="yes"/>
      <point x="415" y="739"/>
      <point x="393" y="705" type="qcurve" smooth="yes"/>
      <point x="347" y="639"/>
      <point x="232" y="494"/>
      <point x="162" y="412" type="qcurve" smooth="yes"/>
      <point x="141" y="388"/>
      <point x="133" y="350"/>
      <point x="144" y="322"/>
      <point x="169" y="305"/>
      <point x="183" y="302" type="qcurve" smooth="yes"/>
      <point x="202" y="299"/>
      <point x="274" y="299" type="qcurve" smooth="yes"/>
      <point x="310" y="299"/>
      <point x="380" y="300"/>
      <point x="415" y="301" type="qcurve"/>
    </contour>
  </outline>
</glyph>
<glyph name="c-bopomofo" format="2">
  <advance width="1000" height="1000"/>
  <note>
uni3118
</note>
  <outline>
    <contour>
      <point x="348" y="475"/>
      <point x="328" y="393"/>
      <point x="316" y="349" type="qcurve" smooth="yes"/>
      <point x="311" y="330"/>
      <point x="308" y="298"/>
      <point x="318" y="276"/>
      <point x="345" y="263"/>
      <point x="369" y="263" type="qcurve" smooth="yes"/>
      <point x="685" y="263" type="line" smooth="yes"/>
      <point x="694" y="263"/>
      <point x="694" y="254" type="qcurve" smooth="yes"/>
      <point x="694" y="238"/>
      <point x="633" y="128" type="qcurve" smooth="yes"/>
      <point x="572" y="17"/>
      <point x="490" y="-86" type="qcurve" smooth="yes"/>
      <point x="469" y="-110"/>
      <point x="469" y="-145"/>
      <point x="490" y="-164"/>
      <point x="521" y="-165"/>
      <point x="532" y="-155" type="qcurve" smooth="yes"/>
      <point x="545" y="-145"/>
      <point x="585" y="-89" type="qcurve" smooth="yes"/>
      <point x="613" y="-51"/>
      <point x="662" y="23"/>
      <point x="682" y="58" type="qcurve" smooth="yes"/>
      <point x="705" y="96"/>
      <point x="748" y="178"/>
      <point x="768" y="223" type="qcurve" smooth="yes"/>
      <point x="785" y="263"/>
      <point x="785" y="281" type="qcurve" smooth="yes"/>
      <point x="785" y="308"/>
      <point x="746" y="338"/>
      <point x="709" y="338" type="qcurve" smooth="yes"/>
      <point x="405" y="338" type="line" smooth="yes"/>
      <point x="392" y="338"/>
      <point x="392" y="342" type="qcurve" smooth="yes"/>
      <point x="392" y="349"/>
      <point x="405" y="395" type="qcurve" smooth="yes"/>
      <point x="418" y="444"/>
      <point x="435" y="515" type="qcurve"/>
      <point x="894" y="515" type="line"/>
      <point x="915" y="513"/>
      <point x="936" y="538"/>
      <point x="936" y="569"/>
      <point x="915" y="593"/>
      <point x="894" y="592" type="qcurve" smooth="yes"/>
      <point x="452" y="592" type="line"/>
      <point x="462" y="642"/>
      <point x="471" y="703"/>
      <point x="471" y="716" type="qcurve" smooth="yes"/>
      <point x="471" y="758"/>
      <point x="437" y="758" type="qcurve" smooth="yes"/>
      <point x="415" y="758"/>
      <point x="404" y="747" type="qcurve" smooth="yes"/>
      <point x="396" y="737"/>
      <point x="388" y="688" type="qcurve" smooth="yes"/>
      <point x="384" y="665"/>
      <point x="377" y="617"/>
      <point x="372" y="592" type="qcurve"/>
      <point x="105" y="592" type="line" smooth="yes"/>
      <point x="84" y="592"/>
      <point x="64" y="568"/>
      <point x="64" y="539"/>
      <point x="84" y="515"/>
      <point x="105" y="515" type="qcurve" smooth="yes"/>
      <point x="356" y="515" type="line"/>
    </contour>
  </outline>
</glyph>
<glyph name="ch-bopomofo" format="2">
  <advance width="1000" height="1000"/>
  <note>
uni3114
</note>
  <outline>
    <contour>
      <point x="687" y="754"/>
      <point x="666" y="736" type="qcurve" smooth="yes"/>
      <point x="632" y="707"/>
      <point x="541" y="643"/>
      <point x="481" y="607" type="qcurve" smooth="yes"/>
      <point x="363" y="536"/>
      <point x="273" y="499" type="qcurve" smooth="yes"/>
      <point x="235" y="482"/>
      <point x="235" y="467" type="qcurve" smooth="yes"/>
      <point x="235" y="450"/>
      <point x="242" y="436" type="qcurve" smooth="yes"/>
      <point x="249" y="421"/>
      <point x="267" y="421" type="qcurve" smooth="yes"/>
      <point x="281" y="421"/>
      <point x="327" y="441" type="qcurve" smooth="yes"/>
      <point x="370" y="461"/>
      <point x="456" y="507"/>
      <point x="501" y="533" type="qcurve" smooth="yes"/>
      <point x="588" y="585"/>
      <point x="656" y="634" type="qcurve" smooth="yes"/>
      <point x="723" y="684"/>
      <point x="732" y="696" type="qcurve" smooth="yes"/>
      <point x="742" y="709"/>
      <point x="742" y="721" type="qcurve" smooth="yes"/>
      <point x="742" y="734"/>
      <point x="719" y="754"/>
      <point x="705" y="754" type="qcurve" smooth="yes"/>
    </contour>
    <contour>
      <point x="506" y="-127" type="line" smooth="yes"/>
      <point x="506" y="-150"/>
      <point x="524" y="-167"/>
      <point x="544" y="-167" type="qcurve" smooth="yes"/>
      <point x="565" y="-167"/>
      <point x="582" y="-150"/>
      <point x="582" y="-127" type="qcurve" smooth="yes"/>
      <point x="582" y="347" type="line"/>
      <point x="622" y="373"/>
      <point x="705" y="429"/>
      <point x="750" y="460" type="qcurve" smooth="yes"/>
      <point x="841" y="524"/>
      <point x="851" y="535" type="qcurve" smooth="yes"/>
      <point x="863" y="547"/>
      <point x="863" y="558" type="qcurve"/>
      <point x="861" y="567"/>
      <point x="851" y="587"/>
      <point x="832" y="597"/>
      <point x="805" y="592"/>
      <point x="788" y="576" type="qcurve"/>
      <point x="737" y="536"/>
      <point x="597" y="442"/>
      <point x="506" y="388" type="qcurve" smooth="yes"/>
      <point x="324" y="281"/>
      <point x="173" y="214" type="qcurve" smooth="yes"/>
      <point x="136" y="198"/>
      <point x="136" y="174" type="qcurve" smooth="yes"/>
      <point x="136" y="163"/>
      <point x="153" y="134"/>
      <point x="165" y="134" type="qcurve" smooth="yes"/>
      <point x="176" y="134"/>
      <point x="193" y="140" type="qcurve" smooth="yes"/>
      <point x="201" y="144"/>
      <point x="263" y="173"/>
      <point x="317" y="199" type="qcurve" smooth="yes"/>
      <point x="371" y="225"/>
      <point x="464" y="276"/>
      <point x="506" y="300" type="qcurve"/>
    </contour>
  </outline>
</glyph>
<glyph name="d-bopomofo" format="2">
  <advance width="1000" height="1000"/>
  <note>
uni3109
</note>
  <outline>
    <contour>
      <point x="380" y="119"/>
      <point x="118" y="-7" type="qcurve" smooth="yes"/>
      <point x="84" y="-23"/>
      <point x="84" y="-48" type="qcurve" smooth="yes"/>
      <point x="84" y="-63"/>
      <point x="102" y="-88"/>
      <point x="119" y="-88" type="qcurve" smooth="yes"/>
      <point x="150" y="-88"/>
      <point x="254" y="-19" type="qcurve" smooth="yes"/>
      <point x="357" y="49"/>
      <point x="432" y="158" type="qcurve" smooth="yes"/>
      <point x="506" y="267"/>
      <point x="556" y="426" type="qcurve"/>
      <point x="804" y="426" type="line" smooth="yes"/>
      <point x="824" y="426"/>
      <point x="840" y="403"/>
      <point x="840" y="374" type="qcurve" smooth="yes"/>
      <point x="840" y="348"/>
      <point x="820" y="242" type="qcurve" smooth="yes"/>
      <point x="810" y="191"/>
      <point x="790" y="108"/>
      <point x="779" y="76" type="qcurve" smooth="yes"/>
      <point x="768" y="44"/>
      <point x="749" y="0"/>
      <point x="726" y="-27"/>
      <point x="697" y="-39"/>
      <point x="678" y="-39" type="qcurve" smooth="yes"/>
      <point x="640" y="-39"/>
      <point x="535" y="6" type="qcurve"/>
      <point x="528" y="12"/>
      <point x="508" y="11"/>
      <point x="489" y="1"/>
      <point x="477" y="-19"/>
      <point x="477" y="-33" type="qcurve" smooth="yes"/>
      <point x="477" y="-49"/>
      <point x="492" y="-61" type="qcurve" smooth="yes"/>
      <point x="508" y="-74"/>
      <point x="574" y="-98" type="qcurve" smooth="yes"/>
      <point x="641" y="-122"/>
      <point x="691" y="-122" type="qcurve" smooth="yes"/>
      <point x="742" y="-122"/>
      <point x="818" y="-46"/>
      <point x="847" y="44" type="qcurve" smooth="yes"/>
      <point x="862" y="89"/>
      <point x="886" y="186"/>
      <point x="896" y="240" type="qcurve" smooth="yes"/>
      <point x="906" y="294"/>
      <point x="916" y="374"/>
      <point x="916" y="400" type="qcurve" smooth="yes"/>
      <point x="916" y="453"/>
      <point x="897" y="476" type="qcurve" smooth="yes"/>
      <point x="878" y="501"/>
      <point x="827" y="501" type="qcurve" smooth="yes"/>
      <point x="324" y="501" type="line" smooth="yes"/>
      <point x="309" y="501"/>
      <point x="309" y="513"/>
      <point x="312" y="519" type="qcurve" smooth="yes"/>
      <point x="397" y="680" type="line"/>
      <point x="408" y="698"/>
      <point x="411" y="725"/>
      <point x="402" y="742"/>
      <point x="384" y="751"/>
      <point x="375" y="751" type="qcurve" smooth="yes"/>
      <point x="352" y="751"/>
      <point x="334" y="719" type="qcurve" smooth="yes"/>
      <point x="223" y="519" type="line" smooth="yes"/>
      <point x="213" y="501"/>
      <point x="209" y="468"/>
      <point x="222" y="442"/>
      <point x="256" y="426"/>
      <point x="284" y="426" type="qcurve" smooth="yes"/>
      <point x="477" y="426" type="line"/>
    </contour>
  </outline>
</glyph>
<glyph name="e-bopomofo" format="2">
  <advance width="1000" height="1000"/>
  <note>
uni311C
</note>
  <outline>
    <contour>
      <point x="514" y="407" type="line" smooth="yes"/>
      <point x="514" y="390"/>
      <point x="498" y="379"/>
      <point x="477" y="378" type="qcurve" smooth="yes"/>
      <point x="321" y="367"/>
      <point x="172" y="252"/>
      <point x="172" y="140" type="qcurve" smooth="yes"/>
      <point x="172" y="29"/>
      <point x="262" y="-34" type="qcurve" smooth="yes"/>
      <point x="353" y="-98"/>
      <point x="507" y="-98" type="qcurve" smooth="yes"/>
      <point x="571" y="-98"/>
      <point x="703" y="-67"/>
      <point x="763" y="-38" type="qcurve" smooth="yes"/>
      <point x="792" y="-24"/>
      <point x="829" y="-4"/>
      <point x="837" y="3" type="qcurve" smooth="yes"/>
      <point x="852" y="16"/>
      <point x="852" y="27" type="qcurve" smooth="yes"/>
      <point x="852" y="38"/>
      <point x="834" y="67"/>
      <point x="819" y="67" type="qcurve" smooth="yes"/>
      <point x="803" y="67"/>
      <point x="780" y="54" type="qcurve" smooth="yes"/>
      <point x="632" y="-23"/>
      <point x="515" y="-23" type="qcurve" smooth="yes"/>
      <point x="397" y="-23"/>
      <point x="324" y="16" type="qcurve" smooth="yes"/>
      <point x="250" y="57"/>
      <point x="250" y="147" type="qcurve" smooth="yes"/>
      <point x="250" y="226"/>
      <point x="366" y="299"/>
      <point x="487" y="305" type="qcurve" smooth="yes"/>
      <point x="543" y="308"/>
      <point x="590" y="341"/>
      <point x="590" y="387" type="qcurve" smooth="yes"/>
      <point x="590" y="506" type="line"/>
      <point x="893" y="506" type="line" smooth="yes"/>
      <point x="932" y="506"/>
      <point x="932" y="542" type="qcurve" smooth="yes"/>
      <point x="932" y="578"/>
      <point x="893" y="578" type="qcurve" smooth="yes"/>
      <point x="590" y="578" type="line"/>
      <point x="590" y="690" type="line" smooth="yes"/>
      <point x="590" y="733"/>
      <point x="553" y="733" type="qcurve" smooth="yes"/>
      <point x="531" y="733"/>
      <point x="514" y="712"/>
      <point x="514" y="690" type="qcurve" smooth="yes"/>
      <point x="514" y="578" type="line"/>
      <point x="105" y="578" type="line" smooth="yes"/>
      <point x="67" y="578"/>
      <point x="67" y="542" type="qcurve" smooth="yes"/>
      <point x="67" y="506"/>
      <point x="105" y="506" type="qcurve" smooth="yes"/>
      <point x="514" y="506" type="line"/>
    </contour>
  </outline>
</glyph>
<glyph name="eh-bopomofo" format="2">
  <advance width="1000" height="1000"/>
  <note>
uni311D
</note>
  <outline>
    <contour>
      <point x="719" y="575"/>
      <point x="723" y="675"/>
      <point x="723" y="710" type="qcurve" smooth="yes"/>
      <point x="723" y="758"/>
      <point x="688" y="758" type="qcurve" smooth="yes"/>
      <point x="648" y="758"/>
      <point x="648" y="709" type="qcurve" smooth="yes"/>
      <point x="647" y="664"/>
      <point x="644" y="565"/>
      <point x="640" y="509" type="qcurve"/>
      <point x="345" y="509" type="line"/>
      <point x="345" y="697" type="line" smooth="yes"/>
      <point x="345" y="721"/>
      <point x="328" y="743"/>
      <point x="307" y="743" type="qcurve" smooth="yes"/>
      <point x="286" y="743"/>
      <point x="269" y="722"/>
      <point x="269" y="698" type="qcurve" smooth="yes"/>
      <point x="269" y="509" type="line"/>
      <point x="102" y="509" type="line" smooth="yes"/>
      <point x="64" y="509"/>
      <point x="64" y="472" type="qcurve" smooth="yes"/>
      <point x="64" y="435"/>
      <point x="102" y="435" type="qcurve" smooth="yes"/>
      <point x="269" y="435" type="line"/>
      <point x="269" y="-42" type="line" smooth="yes"/>
      <point x="269" y="-88"/>
      <point x="308" y="-129"/>
      <point x="354" y="-129" type="qcurve" smooth="yes"/>
      <point x="803" y="-129" type="line" smooth="yes"/>
      <point x="842" y="-129"/>
      <point x="842" y="-92" type="qcurve" smooth="yes"/>
      <point x="842" y="-75"/>
      <point x="820" y="-53"/>
      <point x="803" y="-53" type="qcurve" smooth="yes"/>
      <point x="365" y="-53" type="line" smooth="yes"/>
      <point x="345" y="-53"/>
      <point x="345" y="-32" type="qcurve" smooth="yes"/>
      <point x="345" y="435" type="line"/>
      <point x="635" y="435" type="line"/>
      <point x="620" y="239"/>
      <point x="587" y="46" type="qcurve" smooth="yes"/>
      <point x="586" y="41"/>
      <point x="586" y="32"/>
      <point x="586" y="28" type="qcurve" smooth="yes"/>
      <point x="586" y="-10"/>
      <point x="625" y="-10" type="qcurve" smooth="yes"/>
      <point x="636" y="-10"/>
      <point x="646" y="-3" type="qcurve" smooth="yes"/>
      <point x="656" y="4"/>
      <point x="664" y="51" type="qcurve" smooth="yes"/>
      <point x="668" y="75"/>
      <point x="678" y="156"/>
      <point x="686" y="213" type="qcurve" smooth="yes"/>
      <point x="701" y="327"/>
      <point x="710" y="435" type="qcurve"/>
      <point x="897" y="435" type="line" smooth="yes"/>
      <point x="936" y="435"/>
      <point x="936" y="471" type="qcurve" smooth="yes"/>
      <point x="936" y="489"/>
      <point x="915" y="509"/>
      <point x="897" y="509" type="qcurve" smooth="yes"/>
      <point x="715" y="509" type="line"/>
    </contour>
  </outline>
</glyph>
<glyph name="ei-bopomofo" format="2">
  <advance width="1000" height="1000"/>
  <note>
uni311F
</note>
  <outline>
    <contour>
      <point x="833" y="-65"/>
      <point x="804" y="-45" type="qcurve" smooth="yes"/>
      <point x="664" y="50"/>
      <point x="601" y="201" type="qcurve" smooth="yes"/>
      <point x="537" y="354"/>
      <point x="527" y="619" type="qcurve" smooth="yes"/>
      <point x="525" y="661"/>
      <point x="496" y="699"/>
      <point x="465" y="699" type="qcurve" smooth="yes"/>
      <point x="460" y="699"/>
      <point x="420" y="694"/>
      <point x="384" y="689" type="qcurve" smooth="yes"/>
      <point x="348" y="684"/>
      <point x="264" y="677"/>
      <point x="215" y="675" type="qcurve" smooth="yes"/>
      <point x="166" y="672"/>
      <point x="166" y="637" type="qcurve" smooth="yes"/>
      <point x="166" y="602"/>
      <point x="206" y="602" type="qcurve" smooth="yes"/>
      <point x="227" y="602"/>
      <point x="433" y="623" type="qcurve" smooth="yes"/>
      <point x="446" y="625"/>
      <point x="454" y="616"/>
      <point x="455" y="604" type="qcurve" smooth="yes"/>
      <point x="471" y="338"/>
      <point x="521" y="201" type="qcurve" smooth="yes"/>
      <point x="571" y="66"/>
      <point x="667" y="-29" type="qcurve" smooth="yes"/>
      <point x="765" y="-124"/>
      <point x="797" y="-124" type="qcurve" smooth="yes"/>
      <point x="811" y="-124"/>
      <point x="833" y="-97"/>
      <point x="833" y="-85" type="qcurve" smooth="yes"/>
    </contour>
  </outline>
</glyph>
<glyph name="en-bopomofo" format="2">
  <advance width="1000" height="1000"/>
  <note>
uni3123
</note>
  <outline>
    <contour>
      <point x="268" y="358" type="line" smooth="yes"/>
      <point x="251" y="358"/>
      <point x="253" y="376" type="qcurve" smooth="yes"/>
      <point x="288" y="675" type="line" smooth="yes"/>
      <point x="289" y="680"/>
      <point x="289" y="688"/>
      <point x="289" y="691" type="qcurve" smooth="yes"/>
      <point x="289" y="729"/>
      <point x="250" y="729" type="qcurve" smooth="yes"/>
      <point x="218" y="729"/>
      <point x="212" y="686" type="qcurve" smooth="yes"/>
      <point x="174" y="377" type="line" smooth="yes"/>
      <point x="173" y="369"/>
      <point x="172" y="355"/>
      <point x="172" y="348" type="qcurve" smooth="yes"/>
      <point x="172" y="311"/>
      <point x="205" y="282"/>
      <point x="245" y="282" type="qcurve" smooth="yes"/>
      <point x="720" y="282" type="line" smooth="yes"/>
      <point x="735" y="282"/>
      <point x="745" y="275"/>
      <point x="745" y="267" type="qcurve" smooth="yes"/>
      <point x="745" y="240"/>
      <point x="705" y="135" type="qcurve" smooth="yes"/>
      <point x="667" y="30"/>
      <point x="601" y="-72" type="qcurve" smooth="yes"/>
      <point x="580" y="-104"/>
      <point x="580" y="-134"/>
      <point x="594" y="-144" type="qcurve" smooth="yes"/>
      <point x="608" y="-155"/>
      <point x="635" y="-155"/>
      <point x="650" y="-137" type="qcurve" smooth="yes"/>
      <point x="658" y="-128"/>
      <point x="688" y="-76"/>
      <point x="711" y="-33" type="qcurve" smooth="yes"/>
      <point x="757" y="52"/>
      <point x="792" y="153" type="qcurve" smooth="yes"/>
      <point x="827" y="256"/>
      <point x="827" y="290" type="qcurve" smooth="yes"/>
      <point x="827" y="358"/>
      <point x="744" y="358" type="qcurve" smooth="yes"/>
    </contour>
  </outline>
</glyph>
<glyph name="eng-bopomofo" format="2">
  <advance width="1000" height="1000"/>
  <note>
uni3125
</note>
  <outline>
    <contour>
      <point x="214" y="27" type="line" smooth="yes"/>
      <point x="201" y="27"/>
      <point x="201" y="38"/>
      <point x="204" y="43" type="qcurve" smooth="yes"/>
      <point x="271" y="165"/>
      <point x="379" y="371"/>
      <point x="422" y="457" type="qcurve" smooth="yes"/>
      <point x="465" y="543"/>
      <point x="512" y="639"/>
      <point x="516" y="650" type="qcurve" smooth="yes"/>
      <point x="524" y="674"/>
      <point x="524" y="688" type="qcurve" smooth="yes"/>
      <point x="524" y="703"/>
      <point x="500" y="719"/>
      <point x="486" y="719" type="qcurve" smooth="yes"/>
      <point x="458" y="719"/>
      <point x="442" y="676" type="qcurve" smooth="yes"/>
      <point x="394" y="561"/>
      <point x="241" y="259"/>
      <point x="134" y="70" type="qcurve" smooth="yes"/>
      <point x="111" y="29"/>
      <point x="111" y="3" type="qcurve" smooth="yes"/>
      <point x="111" y="-46"/>
      <point x="191" y="-46" type="qcurve" smooth="yes"/>
      <point x="849" y="-46" type="line" smooth="yes"/>
      <point x="888" y="-46"/>
      <point x="888" y="-9" type="qcurve" smooth="yes"/>
      <point x="888" y="27"/>
      <point x="849" y="27" type="qcurve" smooth="yes"/>
    </contour>
  </outline>
</glyph>
<glyph name="er-bopomofo" format="2">
  <advance width="1000" height="1000"/>
  <note>
uni3126
</note>
  <outline>
    <contour>
      <point x="608" y="691" type="line"/>
      <point x="610" y="711"/>
      <point x="585" y="731"/>
      <point x="554" y="731"/>
      <point x="530" y="711"/>
      <point x="532" y="691" type="qcurve"/>
      <point x="532" y="-27" type="line" smooth="yes"/>
      <point x="532" y="-69"/>
      <point x="560" y="-113"/>
      <point x="593" y="-121" type="qcurve" smooth="yes"/>
      <point x="628" y="-129"/>
      <point x="712" y="-129" type="qcurve" smooth="yes"/>
      <point x="756" y="-129"/>
      <point x="826" y="-124"/>
      <point x="852" y="-119" type="qcurve" smooth="yes"/>
      <point x="904" y="-109"/>
      <point x="921" y="-59" type="qcurve" smooth="yes"/>
      <point x="938" y="-8"/>
      <point x="938" y="69" type="qcurve" smooth="yes"/>
      <point x="938" y="126"/>
      <point x="899" y="126" type="qcurve" smooth="yes"/>
      <point x="881" y="126"/>
      <point x="861" y="101"/>
      <point x="861" y="80" type="qcurve" smooth="yes"/>
      <point x="859" y="-14"/>
      <point x="843" y="-33" type="qcurve" smooth="yes"/>
      <point x="828" y="-53"/>
      <point x="724" y="-53" type="qcurve" smooth="yes"/>
      <point x="682" y="-53"/>
      <point x="623" y="-46"/>
      <point x="615" y="-36" type="qcurve" smooth="yes"/>
      <point x="608" y="-28"/>
      <point x="608" y="3" type="qcurve" smooth="yes"/>
    </contour>
    <contour>
      <point x="381" y="678" type="line" smooth="yes"/>
      <point x="381" y="728"/>
      <point x="343" y="728" type="qcurve" smooth="yes"/>
      <point x="306" y="728"/>
      <point x="306" y="678" type="qcurve" smooth="yes"/>
      <point x="306" y="420" type="line" smooth="yes"/>
      <point x="306" y="230"/>
      <point x="263" y="122" type="qcurve" smooth="yes"/>
      <point x="220" y="13"/>
      <point x="97" y="-72" type="qcurve" smooth="yes"/>
      <point x="61" y="-98"/>
      <point x="61" y="-112" type="qcurve" smooth="yes"/>
      <point x="61" y="-128"/>
      <point x="71" y="-141" type="qcurve" smooth="yes"/>
      <point x="81" y="-156"/>
      <point x="98" y="-156" type="qcurve" smooth="yes"/>
      <point x="131" y="-156"/>
      <point x="218" y="-75" type="qcurve" smooth="yes"/>
      <point x="305" y="5"/>
      <point x="343" y="116" type="qcurve" smooth="yes"/>
      <point x="381" y="230"/>
      <point x="381" y="415" type="qcurve" smooth="yes"/>
    </contour>
  </outline>
</glyph>
<glyph name="f-bopomofo" format="2">
  <advance width="1000" height="1000"/>
  <note>
uni3108
</note>
  <outline>
    <contour>
      <point x="210" y="635" type="line" smooth="yes"/>
      <point x="161" y="635"/>
      <point x="123" y="599"/>
      <point x="123" y="550" type="qcurve" smooth="yes"/>
      <point x="123" y="-29" type="line" smooth="yes"/>
      <point x="123" y="-75"/>
      <point x="160" y="-113"/>
      <point x="208" y="-113" type="qcurve" smooth="yes"/>
      <point x="835" y="-113" type="line" smooth="yes"/>
      <point x="876" y="-113"/>
      <point x="876" y="-75" type="qcurve" smooth="yes"/>
      <point x="876" y="-37"/>
      <point x="835" y="-37" type="qcurve" smooth="yes"/>
      <point x="216" y="-37" type="line" smooth="yes"/>
      <point x="205" y="-37"/>
      <point x="197" y="-29"/>
      <point x="197" y="-17" type="qcurve" smooth="yes"/>
      <point x="197" y="537" type="line" smooth="yes"/>
      <point x="197" y="559"/>
      <point x="216" y="559" type="qcurve" smooth="yes"/>
      <point x="834" y="559" type="line" smooth="yes"/>
      <point x="875" y="559"/>
      <point x="875" y="597" type="qcurve" smooth="yes"/>
      <point x="875" y="614"/>
      <point x="853" y="635"/>
      <point x="834" y="635" type="qcurve" smooth="yes"/>
    </contour>
  </outline>
</glyph>
<glyph name="g-bopomofo" format="2">
  <advance width="1000" height="1000"/>
  <note>
uni310D
</note>
  <outline>
    <contour>
      <point x="601" y="307"/>
      <point x="611" y="323" type="qcurve" smooth="yes"/>
      <point x="651" y="389"/>
      <point x="716" y="521" type="qcurve"/>
      <point x="791" y="678" type="line"/>
      <point x="719" y="705" type="line"/>
      <point x="633" y="507"/>
      <point x="539" y="349" type="qcurve" smooth="yes"/>
      <point x="522" y="322"/>
      <point x="522" y="270"/>
      <point x="536" y="248" type="qcurve" smooth="yes"/>
      <point x="596" y="151"/>
      <point x="708" y="-45"/>
      <point x="752" y="-127" type="qcurve"/>
      <point x="826" y="-89" type="line"/>
      <point x="815" y="-68"/>
      <point x="750" y="38" type="qcurve" smooth="yes"/>
      <point x="722" y="86"/>
      <point x="653" y="202"/>
      <point x="610" y="271" type="qcurve" smooth="yes"/>
      <point x="601" y="286"/>
      <point x="601" y="296" type="qcurve" smooth="yes"/>
    </contour>
    <contour>
      <point x="401" y="-122" type="qcurve"/>
      <point x="476" y="-86" type="line"/>
      <point x="464" y="-61"/>
      <point x="403" y="38" type="qcurve" smooth="yes"/>
      <point x="378" y="83"/>
      <point x="308" y="198"/>
      <point x="262" y="270" type="qcurve" smooth="yes"/>
      <point x="254" y="283"/>
      <point x="254" y="304"/>
      <point x="264" y="323" type="qcurve" smooth="yes"/>
      <point x="336" y="447"/>
      <point x="390" y="560" type="qcurve"/>
      <point x="450" y="688" type="line"/>
      <point x="382" y="716" type="line"/>
      <point x="345" y="630"/>
      <point x="245" y="443"/>
      <point x="191" y="349" type="qcurve" smooth="yes"/>
      <point x="174" y="320"/>
      <point x="174" y="269"/>
      <point x="188" y="247" type="qcurve" smooth="yes"/>
      <point x="242" y="164"/>
      <point x="353" y="-29"/>
    </contour>
  </outline>
</glyph>
<glyph name="h-bopomofo" format="2">
  <advance width="1000" height="1000"/>
  <note>
uni310F
</note>
  <outline>
    <contour>
      <point x="258" y="682" type="line" smooth="yes"/>
      <point x="213" y="682"/>
      <point x="176" y="645"/>
      <point x="176" y="597" type="qcurve" smooth="yes"/>
      <point x="176" y="409" type="line" smooth="yes"/>
      <point x="176" y="316"/>
      <point x="166" y="166"/>
      <point x="145" y="47"/>
      <point x="112" y="-45"/>
      <point x="88" y="-79" type="qcurve" smooth="yes"/>
      <point x="70" y="-105"/>
      <point x="70" y="-141"/>
      <point x="83" y="-150" type="qcurve" smooth="yes"/>
      <point x="97" y="-160"/>
      <point x="120" y="-160"/>
      <point x="131" y="-152" type="qcurve" smooth="yes"/>
      <point x="143" y="-143"/>
      <point x="171" y="-95" type="qcurve" smooth="yes"/>
      <point x="201" y="-46"/>
      <point x="219" y="18" type="qcurve" smooth="yes"/>
      <point x="228" y="49"/>
      <point x="241" y="125"/>
      <point x="249" y="218"/>
      <point x="253" y="333"/>
      <point x="253" y="405" type="qcurve" smooth="yes"/>
      <point x="253" y="586" type="line" smooth="yes"/>
      <point x="253" y="600"/>
      <point x="263" y="611"/>
      <point x="276" y="611" type="qcurve" smooth="yes"/>
      <point x="895" y="611" type="line"/>
      <point x="895" y="682" type="line"/>
    </contour>
  </outline>
</glyph>
<glyph name="i-bopomofo" format="2">
  <advance width="1000" height="1000"/>
  <note>
uni3127
</note>
  <outline>
    <contour>
      <point x="78" y="366" type="line" smooth="yes"/>
      <point x="58" y="366"/>
      <point x="36" y="345"/>
      <point x="36" y="327" type="qcurve" smooth="yes"/>
      <point x="36" y="288"/>
      <point x="80" y="288" type="qcurve" smooth="yes"/>
      <point x="919" y="288" type="line"/>
      <point x="941" y="286"/>
      <point x="963" y="312"/>
      <point x="963" y="342"/>
      <point x="941" y="367"/>
      <point x="919" y="366" type="qcurve" smooth="yes"/>
    </contour>
  </outline>
</glyph>
<glyph name="iu-bopomofo" format="2">
  <advance width="1000" height="1000"/>
  <note>
uni3129
</note>
  <outline>
    <contour>
      <point x="855" y="624" type="line" smooth="yes"/>
      <point x="855" y="642"/>
      <point x="835" y="663"/>
      <point x="817" y="663" type="qcurve" smooth="yes"/>
      <point x="780" y="663"/>
      <point x="780" y="624" type="qcurve" smooth="yes"/>
      <point x="780" y="31" type="line" smooth="yes"/>
      <point x="780" y="10"/>
      <point x="765" y="10" type="qcurve" smooth="yes"/>
      <point x="237" y="10" type="line" smooth="yes"/>
      <point x="226" y="10"/>
      <point x="220" y="18"/>
      <point x="220" y="31" type="qcurve" smooth="yes"/>
      <point x="220" y="627" type="line" smooth="yes"/>
      <point x="220" y="666"/>
      <point x="182" y="666" type="qcurve" smooth="yes"/>
      <point x="145" y="666"/>
      <point x="145" y="627" type="qcurve" smooth="yes"/>
      <point x="145" y="22" type="line" smooth="yes"/>
      <point x="145" y="-27"/>
      <point x="179" y="-62"/>
      <point x="228" y="-62" type="qcurve" smooth="yes"/>
      <point x="773" y="-62" type="line" smooth="yes"/>
      <point x="818" y="-62"/>
      <point x="855" y="-25"/>
      <point x="855" y="20" type="qcurve" smooth="yes"/>
    </contour>
  </outline>
</glyph>
<glyph name="j-bopomofo" format="2">
  <advance width="1000" height="1000"/>
  <note>
uni3110
</note>
  <outline>
    <contour>
      <point x="660" y="-110" type="line" smooth="yes"/>
      <point x="660" y="-147"/>
      <point x="697" y="-147" type="qcurve" smooth="yes"/>
      <point x="735" y="-147"/>
      <point x="735" y="-110" type="qcurve" smooth="yes"/>
      <point x="735" y="705" type="line" smooth="yes"/>
      <point x="735" y="745"/>
      <point x="697" y="745" type="qcurve" smooth="yes"/>
      <point x="660" y="745"/>
      <point x="660" y="705" type="qcurve" smooth="yes"/>
      <point x="660" y="302" type="line"/>
      <point x="615" y="282"/>
      <point x="519" y="244"/>
      <point x="466" y="225" type="qcurve" smooth="yes"/>
      <point x="364" y="188"/>
      <point x="350" y="188" type="qcurve" smooth="yes"/>
      <point x="339" y="188"/>
      <point x="339" y="205" type="qcurve" smooth="yes"/>
      <point x="339" y="623" type="line" smooth="yes"/>
      <point x="339" y="660"/>
      <point x="303" y="660" type="qcurve" smooth="yes"/>
      <point x="285" y="660"/>
      <point x="264" y="640"/>
      <point x="264" y="623" type="qcurve" smooth="yes"/>
      <point x="264" y="189" type="line" smooth="yes"/>
      <point x="264" y="105"/>
      <point x="322" y="105" type="qcurve" smooth="yes"/>
      <point x="373" y="105"/>
      <point x="660" y="228" type="qcurve"/>
    </contour>
  </outline>
</glyph>
<glyph name="k-bopomofo" format="2">
  <advance width="1000" height="1000"/>
  <note>
uni310E
</note>
  <outline>
    <contour>
      <point x="272" y="416" type="line" smooth="yes"/>
      <point x="260" y="387"/>
      <point x="260" y="368" type="qcurve" smooth="yes"/>
      <point x="260" y="323"/>
      <point x="322" y="323" type="qcurve" smooth="yes"/>
      <point x="701" y="323" type="line" smooth="yes"/>
      <point x="720" y="323"/>
      <point x="720" y="302" type="qcurve" smooth="yes"/>
      <point x="720" y="280"/>
      <point x="695" y="186" type="qcurve" smooth="yes"/>
      <point x="683" y="138"/>
      <point x="660" y="61"/>
      <point x="649" y="31" type="qcurve" smooth="yes"/>
      <point x="638" y="2"/>
      <point x="621" y="-35"/>
      <point x="614" y="-42" type="qcurve" smooth="yes"/>
      <point x="602" y="-56"/>
      <point x="573" y="-56" type="qcurve" smooth="yes"/>
      <point x="543" y="-56"/>
      <point x="436" y="-19" type="qcurve"/>
      <point x="393" y="-83" type="line"/>
      <point x="411" y="-96"/>
      <point x="477" y="-115" type="qcurve" smooth="yes"/>
      <point x="548" y="-135"/>
      <point x="584" y="-135" type="qcurve" smooth="yes"/>
      <point x="622" y="-135"/>
      <point x="644" y="-122" type="qcurve" smooth="yes"/>
      <point x="667" y="-108"/>
      <point x="683" y="-82" type="qcurve" smooth="yes"/>
      <point x="699" y="-56"/>
      <point x="725" y="22" type="qcurve" smooth="yes"/>
      <point x="739" y="61"/>
      <point x="763" y="148"/>
      <point x="774" y="197" type="qcurve" smooth="yes"/>
      <point x="797" y="297"/>
      <point x="797" y="326" type="qcurve" smooth="yes"/>
      <point x="797" y="358"/>
      <point x="776" y="376" type="qcurve" smooth="yes"/>
      <point x="757" y="395"/>
      <point x="718" y="395" type="qcurve" smooth="yes"/>
      <point x="366" y="395" type="line" smooth="yes"/>
      <point x="351" y="395"/>
      <point x="351" y="409"/>
      <point x="354" y="415" type="qcurve" smooth="yes"/>
      <point x="441" y="608" type="line"/>
      <point x="871" y="608" type="line"/>
      <point x="871" y="680" type="line"/>
      <point x="128" y="680" type="line"/>
      <point x="128" y="608" type="line"/>
      <point x="357" y="608" type="line"/>
    </contour>
  </outline>
</glyph>
<glyph name="l-bopomofo" format="2">
  <advance width="1000" height="1000"/>
  <note>
uni310C
</note>
  <outline>
    <contour>
      <point x="795" y="392" type="line" smooth="yes"/>
      <point x="818" y="392"/>
      <point x="818" y="367" type="qcurve" smooth="yes"/>
      <point x="818" y="325"/>
      <point x="809" y="234" type="qcurve" smooth="yes"/>
      <point x="804" y="188"/>
      <point x="794" y="113"/>
      <point x="789" y="82" type="qcurve" smooth="yes"/>
      <point x="784" y="52"/>
      <point x="772" y="6"/>
      <point x="767" y="-10" type="qcurve" smooth="yes"/>
      <point x="757" y="-42"/>
      <point x="735" y="-62"/>
      <point x="709" y="-62" type="qcurve" smooth="yes"/>
      <point x="683" y="-62"/>
      <point x="605" y="-41" type="qcurve" smooth="yes"/>
      <point x="595" y="-39"/>
      <point x="590" y="-39" type="qcurve" smooth="yes"/>
      <point x="575" y="-39"/>
      <point x="558" y="-55"/>
      <point x="552" y="-77"/>
      <point x="556" y="-101"/>
      <point x="563" y="-108" type="qcurve" smooth="yes"/>
      <point x="573" y="-120"/>
      <point x="629" y="-131" type="qcurve" smooth="yes"/>
      <point x="682" y="-141"/>
      <point x="718" y="-141" type="qcurve" smooth="yes"/>
      <point x="752" y="-141"/>
      <point x="776" y="-130" type="qcurve" smooth="yes"/>
      <point x="799" y="-119"/>
      <point x="828" y="-74"/>
      <point x="841" y="-26" type="qcurve" smooth="yes"/>
      <point x="848" y="-2"/>
      <point x="861" y="55"/>
      <point x="866" y="88" type="qcurve" smooth="yes"/>
      <point x="872" y="121"/>
      <point x="882" y="200"/>
      <point x="886" y="246" type="qcurve" smooth="yes"/>
      <point x="895" y="337"/>
      <point x="895" y="395" type="qcurve" smooth="yes"/>
      <point x="895" y="467"/>
      <point x="811" y="467" type="qcurve" smooth="yes"/>
      <point x="607" y="467" type="line"/>
      <point x="618" y="510"/>
      <point x="635" y="585"/>
      <point x="642" y="619" type="qcurve" smooth="yes"/>
      <point x="649" y="653"/>
      <point x="655" y="694"/>
      <point x="655" y="702" type="qcurve" smooth="yes"/>
      <point x="655" y="749"/>
      <point x="619" y="749" type="qcurve" smooth="yes"/>
      <point x="583" y="749"/>
      <point x="573" y="688" type="qcurve" smooth="yes"/>
      <point x="555" y="576"/>
      <point x="525" y="467" type="qcurve"/>
      <point x="291" y="467" type="line" smooth="yes"/>
      <point x="278" y="467"/>
      <point x="278" y="480"/>
      <point x="280" y="486" type="qcurve" smooth="yes"/>
      <point x="322" y="619" type="line" smooth="yes"/>
      <point x="328" y="637"/>
      <point x="328" y="671"/>
      <point x="313" y="677" type="qcurve" smooth="yes"/>
      <point x="299" y="684"/>
      <point x="287" y="684" type="qcurve" smooth="yes"/>
      <point x="260" y="684"/>
      <point x="250" y="644" type="qcurve"/>
      <point x="197" y="473" type="line" smooth="yes"/>
      <point x="191" y="455"/>
      <point x="191" y="440" type="qcurve" smooth="yes"/>
      <point x="191" y="392"/>
      <point x="260" y="392" type="qcurve" smooth="yes"/>
      <point x="502" y="392" type="line"/>
      <point x="479" y="326"/>
      <point x="407" y="198"/>
      <point x="356" y="134" type="qcurve" smooth="yes"/>
      <point x="256" y="7"/>
      <point x="140" y="-72" type="qcurve" smooth="yes"/>
      <point x="104" y="-96"/>
      <point x="104" y="-120" type="qcurve" smooth="yes"/>
      <point x="104" y="-133"/>
      <point x="124" y="-160"/>
      <point x="139" y="-160" type="qcurve" smooth="yes"/>
      <point x="155" y="-160"/>
      <point x="177" y="-144" type="qcurve" smooth="yes"/>
      <point x="188" y="-136"/>
      <point x="228" y="-106"/>
      <point x="257" y="-83" type="qcurve" smooth="yes"/>
      <point x="286" y="-60"/>
      <point x="348" y="1"/>
      <point x="382" y="39" type="qcurve" smooth="yes"/>
      <point x="451" y="117"/>
      <point x="501" y="204" type="qcurve" smooth="yes"/>
      <point x="527" y="249"/>
      <point x="569" y="342"/>
      <point x="586" y="392" type="qcurve"/>
    </contour>
  </outline>
</glyph>
<glyph name="n-bopomofo" format="2">
  <advance width="1000" height="1000"/>
  <note>
uni310B
</note>
  <outline>
    <contour>
      <point x="630" y="400" type="line" smooth="yes"/>
      <point x="615" y="400"/>
      <point x="615" y="414"/>
      <point x="621" y="423" type="qcurve" smooth="yes"/>
      <point x="735" y="602" type="line" smooth="yes"/>
      <point x="748" y="622"/>
      <point x="754" y="659"/>
      <point x="736" y="688"/>
      <point x="694" y="705"/>
      <point x="659" y="705" type="qcurve" smooth="yes"/>
      <point x="169" y="705" type="line" smooth="yes"/>
      <point x="125" y="705"/>
      <point x="125" y="666" type="qcurve" smooth="yes"/>
      <point x="125" y="629"/>
      <point x="169" y="629" type="qcurve" smooth="yes"/>
      <point x="648" y="629" type="line" smooth="yes"/>
      <point x="660" y="629"/>
      <point x="660" y="618"/>
      <point x="655" y="610" type="qcurve" smooth="yes"/>
      <point x="541" y="437" type="line" smooth="yes"/>
      <point x="527" y="415"/>
      <point x="520" y="375"/>
      <point x="537" y="344"/>
      <point x="577" y="326"/>
      <point x="610" y="326" type="qcurve" smooth="yes"/>
      <point x="782" y="326" type="line" smooth="yes"/>
      <point x="796" y="326"/>
      <point x="796" y="312" type="qcurve" smooth="yes"/>
      <point x="796" y="285"/>
      <point x="780" y="217" type="qcurve" smooth="yes"/>
      <point x="763" y="146"/>
      <point x="743" y="93" type="qcurve" smooth="yes"/>
      <point x="723" y="39"/>
      <point x="701" y="0" type="qcurve" smooth="yes"/>
      <point x="680" y="-38"/>
      <point x="643" y="-63"/>
      <point x="616" y="-63" type="qcurve" smooth="yes"/>
      <point x="566" y="-63"/>
      <point x="469" y="-11" type="qcurve"/>
      <point x="450" y="2"/>
      <point x="417" y="-3"/>
      <point x="398" y="-23"/>
      <point x="394" y="-50"/>
      <point x="403" y="-59" type="qcurve" smooth="yes"/>
      <point x="407" y="-64"/>
      <point x="416" y="-74"/>
      <point x="423" y="-78" type="qcurve" smooth="yes"/>
      <point x="430" y="-82"/>
      <point x="458" y="-95"/>
      <point x="480" y="-104" type="qcurve" smooth="yes"/>
      <point x="567" y="-142"/>
      <point x="625" y="-142" type="qcurve" smooth="yes"/>
      <point x="677" y="-142"/>
      <point x="715" y="-110" type="qcurve" smooth="yes"/>
      <point x="753" y="-78"/>
      <point x="792" y="8" type="qcurve" smooth="yes"/>
      <point x="832" y="93"/>
      <point x="853" y="194" type="qcurve" smooth="yes"/>
      <point x="875" y="291"/>
      <point x="875" y="326" type="qcurve" smooth="yes"/>
      <point x="875" y="400"/>
      <point x="785" y="400" type="qcurve" smooth="yes"/>
    </contour>
  </outline>
</glyph>
<glyph name="o-bopomofo" format="2">
  <advance width="1000" height="1000"/>
  <note>
uni311B
</note>
  <outline>
    <contour>
      <point x="514" y="437" type="line" smooth="yes"/>
      <point x="514" y="424"/>
      <point x="494" y="416"/>
      <point x="472" y="415" type="qcurve" smooth="yes"/>
      <point x="160" y="404"/>
      <point x="160" y="170" type="qcurve" smooth="yes"/>
      <point x="160" y="35"/>
      <point x="343" y="-93"/>
      <point x="512" y="-93" type="qcurve" smooth="yes"/>
      <point x="621" y="-93"/>
      <point x="740" y="-57" type="qcurve" smooth="yes"/>
      <point x="798" y="-41"/>
      <point x="818" y="-30" type="qcurve" smooth="yes"/>
      <point x="836" y="-22"/>
      <point x="844" y="-12" type="qcurve" smooth="yes"/>
      <point x="851" y="-4"/>
      <point x="851" y="19"/>
      <point x="842" y="31" type="qcurve" smooth="yes"/>
      <point x="834" y="44"/>
      <point x="801" y="44"/>
      <point x="782" y="37" type="qcurve" smooth="yes"/>
      <point x="638" y="-19"/>
      <point x="513" y="-19" type="qcurve" smooth="yes"/>
      <point x="386" y="-19"/>
      <point x="313" y="20" type="qcurve" smooth="yes"/>
      <point x="239" y="61"/>
      <point x="239" y="162" type="qcurve" smooth="yes"/>
      <point x="239" y="265"/>
      <point x="299" y="303" type="qcurve" smooth="yes"/>
      <point x="358" y="341"/>
      <point x="486" y="346" type="qcurve" smooth="yes"/>
      <point x="547" y="347"/>
      <point x="568" y="361" type="qcurve" smooth="yes"/>
      <point x="590" y="374"/>
      <point x="590" y="419" type="qcurve" smooth="yes"/>
      <point x="590" y="588" type="line"/>
      <point x="893" y="588" type="line" smooth="yes"/>
      <point x="932" y="588"/>
      <point x="932" y="625" type="qcurve" smooth="yes"/>
      <point x="932" y="641"/>
      <point x="911" y="662"/>
      <point x="893" y="662" type="qcurve" smooth="yes"/>
      <point x="105" y="662" type="line" smooth="yes"/>
      <point x="67" y="662"/>
      <point x="67" y="625" type="qcurve" smooth="yes"/>
      <point x="67" y="588"/>
      <point x="105" y="588" type="qcurve" smooth="yes"/>
      <point x="514" y="588" type="line"/>
    </contour>
  </outline>
</glyph>
<glyph name="ou-bopomofo" format="2">
  <advance width="1000" height="1000"/>
  <note>
uni3121
</note>
  <outline>
    <contour>
      <point x="669" y="38"/>
      <point x="795" y="-100" type="qcurve" smooth="yes"/>
      <point x="810" y="-115"/>
      <point x="831" y="-128"/>
      <point x="847" y="-130"/>
      <point x="859" y="-123"/>
      <point x="865" y="-117" type="qcurve" smooth="yes"/>
      <point x="877" y="-105"/>
      <point x="877" y="-92" type="qcurve" smooth="yes"/>
      <point x="877" y="-80"/>
      <point x="867" y="-64" type="qcurve" smooth="yes"/>
      <point x="857" y="-49"/>
      <point x="752" y="58" type="qcurve" smooth="yes"/>
      <point x="700" y="112"/>
      <point x="623" y="188"/>
      <point x="598" y="211" type="qcurve"/>
      <point x="652" y="278"/>
      <point x="743" y="416"/>
      <point x="781" y="491" type="qcurve" smooth="yes"/>
      <point x="820" y="568"/>
      <point x="825" y="587" type="qcurve" smooth="yes"/>
      <point x="832" y="607"/>
      <point x="832" y="621" type="qcurve" smooth="yes"/>
      <point x="832" y="651"/>
      <point x="790" y="687"/>
      <point x="753" y="687" type="qcurve" smooth="yes"/>
      <point x="206" y="687" type="line" smooth="yes"/>
      <point x="165" y="687"/>
      <point x="165" y="648" type="qcurve" smooth="yes"/>
      <point x="165" y="628"/>
      <point x="184" y="612"/>
      <point x="205" y="612" type="qcurve" smooth="yes"/>
      <point x="730" y="612" type="line" smooth="yes"/>
      <point x="745" y="612"/>
      <point x="745" y="602" type="qcurve" smooth="yes"/>
      <point x="745" y="587"/>
      <point x="690" y="484" type="qcurve" smooth="yes"/>
      <point x="635" y="379"/>
      <point x="542" y="262" type="qcurve"/>
      <point x="508" y="294"/>
      <point x="434" y="361"/>
      <point x="392" y="396" type="qcurve" smooth="yes"/>
      <point x="350" y="432"/>
      <point x="304" y="472"/>
      <point x="297" y="476" type="qcurve" smooth="yes"/>
      <point x="283" y="484"/>
      <point x="270" y="484" type="qcurve" smooth="yes"/>
      <point x="257" y="484"/>
      <point x="235" y="458"/>
      <point x="235" y="446" type="qcurve" smooth="yes"/>
      <point x="235" y="424"/>
      <point x="282" y="389" type="qcurve" smooth="yes"/>
      <point x="330" y="355"/>
      <point x="494" y="204" type="qcurve"/>
      <point x="461" y="167"/>
      <point x="384" y="97"/>
      <point x="339" y="62" type="qcurve" smooth="yes"/>
      <point x="250" y="-6"/>
      <point x="168" y="-49" type="qcurve" smooth="yes"/>
      <point x="122" y="-74"/>
      <point x="122" y="-98" type="qcurve" smooth="yes"/>
      <point x="122" y="-109"/>
      <point x="141" y="-137"/>
      <point x="154" y="-137" type="qcurve" smooth="yes"/>
      <point x="170" y="-137"/>
      <point x="191" y="-127" type="qcurve" smooth="yes"/>
      <point x="202" y="-122"/>
      <point x="252" y="-92"/>
      <point x="290" y="-66" type="qcurve" smooth="yes"/>
      <point x="366" y="-15"/>
      <point x="433" y="41" type="qcurve" smooth="yes"/>
      <point x="501" y="98"/>
      <point x="549" y="152" type="qcurve"/>
    </contour>
  </outline>
</glyph>
<glyph name="q-bopomofo" format="2">
  <advance width="1000" height="1000"/>
  <note>
uni3111
</note>
  <outline>
    <contour>
      <point x="702" y="-107"/>
      <point x="694" y="-93" type="qcurve" smooth="yes"/>
      <point x="690" y="-86"/>
      <point x="642" y="-25"/>
      <point x="597" y="29" type="qcurve" smooth="yes"/>
      <point x="552" y="83"/>
      <point x="451" y="201"/>
      <point x="394" y="267" type="qcurve" smooth="yes"/>
      <point x="383" y="279"/>
      <point x="383" y="297"/>
      <point x="392" y="309" type="qcurve" smooth="yes"/>
      <point x="471" y="414"/>
      <point x="572" y="587" type="qcurve" smooth="yes"/>
      <point x="598" y="630"/>
      <point x="626" y="680"/>
      <point x="629" y="687" type="qcurve" smooth="yes"/>
      <point x="635" y="697"/>
      <point x="635" y="718"/>
      <point x="626" y="736"/>
      <point x="608" y="746"/>
      <point x="597" y="746" type="qcurve" smooth="yes"/>
      <point x="571" y="746"/>
      <point x="550" y="704" type="qcurve" smooth="yes"/>
      <point x="533" y="670"/>
      <point x="482" y="581"/>
      <point x="447" y="524" type="qcurve" smooth="yes"/>
      <point x="412" y="467"/>
      <point x="350" y="376"/>
      <point x="322" y="341" type="qcurve" smooth="yes"/>
      <point x="277" y="284"/>
      <point x="323" y="233" type="qcurve" smooth="yes"/>
      <point x="401" y="148"/>
      <point x="548" y="-29"/>
      <point x="618" y="-123" type="qcurve" smooth="yes"/>
      <point x="630" y="-140"/>
      <point x="650" y="-155"/>
      <point x="666" y="-157"/>
      <point x="681" y="-150"/>
      <point x="688" y="-144" type="qcurve" smooth="yes"/>
      <point x="702" y="-133"/>
      <point x="702" y="-118" type="qcurve" smooth="yes"/>
    </contour>
  </outline>
</glyph>
<glyph name="r-bopomofo" format="2">
  <advance width="1000" height="1000"/>
  <note>
uni3116
</note>
  <outline>
    <contour>
      <point x="765" y="590" type="line" smooth="yes"/>
      <point x="765" y="632"/>
      <point x="733" y="667"/>
      <point x="691" y="667" type="qcurve" smooth="yes"/>
      <point x="309" y="667" type="line" smooth="yes"/>
      <point x="264" y="667"/>
      <point x="235" y="634"/>
      <point x="235" y="590" type="qcurve" smooth="yes"/>
      <point x="235" y="9" type="line" smooth="yes"/>
      <point x="235" y="-15"/>
      <point x="242" y="-45"/>
      <point x="259" y="-62"/>
      <point x="288" y="-69"/>
      <point x="309" y="-69" type="qcurve" smooth="yes"/>
      <point x="691" y="-69" type="line" smooth="yes"/>
      <point x="713" y="-69"/>
      <point x="742" y="-62"/>
      <point x="759" y="-44"/>
      <point x="765" y="-14"/>
      <point x="765" y="9" type="qcurve" smooth="yes"/>
    </contour>
    <contour>
      <point x="690" y="3"/>
      <point x="678" y="3" type="qcurve" smooth="yes"/>
      <point x="325" y="3" type="line" smooth="yes"/>
      <point x="310" y="3"/>
      <point x="310" y="19" type="qcurve" smooth="yes"/>
      <point x="310" y="576" type="line" smooth="yes"/>
      <point x="310" y="595"/>
      <point x="325" y="595" type="qcurve" smooth="yes"/>
      <point x="676" y="595" type="line" smooth="yes"/>
      <point x="690" y="595"/>
      <point x="690" y="580" type="qcurve" smooth="yes"/>
      <point x="690" y="19" type="line" smooth="yes"/>
    </contour>
    <contour>
      <point x="397" y="490"/>
      <point x="380" y="478"/>
      <point x="371" y="459"/>
      <point x="373" y="437"/>
      <point x="383" y="427" type="qcurve"/>
      <point x="440" y="352"/>
      <point x="535" y="212"/>
      <point x="575" y="143" type="qcurve" smooth="yes"/>
      <point x="590" y="118"/>
      <point x="615" y="118"/>
      <point x="631" y="127" type="qcurve" smooth="yes"/>
      <point x="647" y="137"/>
      <point x="647" y="168"/>
      <point x="637" y="186" type="qcurve" smooth="yes"/>
      <point x="618" y="219"/>
      <point x="571" y="292"/>
      <point x="543" y="334" type="qcurve" smooth="yes"/>
      <point x="461" y="451"/>
      <point x="437" y="475" type="qcurve" smooth="yes"/>
      <point x="422" y="491"/>
      <point x="407" y="491" type="qcurve" smooth="yes"/>
    </contour>
  </outline>
</glyph>
<glyph name="s-bopomofo" format="2">
  <advance width="1000" height="1000"/>
  <note>
uni3119
</note>
  <outline>
    <contour>
      <point x="807" y="-30"/>
      <point x="825" y="-68"/>
      <point x="835" y="-77" type="qcurve" smooth="yes"/>
      <point x="857" y="-95"/>
      <point x="882" y="-76" type="qcurve" smooth="yes"/>
      <point x="905" y="-59"/>
      <point x="886" y="-19" type="qcurve" smooth="yes"/>
      <point x="882" y="-9"/>
      <point x="854" y="43"/>
      <point x="830" y="87" type="qcurve" smooth="yes"/>
      <point x="806" y="131"/>
      <point x="757" y="214"/>
      <point x="732" y="254" type="qcurve" smooth="yes"/>
      <point x="671" y="353" type="line" smooth="yes"/>
      <point x="654" y="380"/>
      <point x="621" y="393"/>
      <point x="601" y="378" type="qcurve" smooth="yes"/>
      <point x="574" y="358"/>
      <point x="603" y="316" type="qcurve" smooth="yes"/>
      <point x="637" y="267"/>
      <point x="709" y="148"/>
      <point x="749" y="77" type="qcurve"/>
      <point x="645" y="65"/>
      <point x="463" y="46"/>
      <point x="384" y="39" type="qcurve" smooth="yes"/>
      <point x="305" y="32"/>
      <point x="220" y="25"/>
      <point x="213" y="25" type="qcurve" smooth="yes"/>
      <point x="200" y="25"/>
      <point x="200" y="37"/>
      <point x="204" y="44" type="qcurve" smooth="yes"/>
      <point x="236" y="105"/>
      <point x="301" y="234"/>
      <point x="333" y="304" type="qcurve" smooth="yes"/>
      <point x="366" y="374"/>
      <point x="420" y="496"/>
      <point x="441" y="549" type="qcurve" smooth="yes"/>
      <point x="463" y="603"/>
      <point x="485" y="662"/>
      <point x="487" y="669" type="qcurve"/>
      <point x="497" y="691"/>
      <point x="477" y="727"/>
      <point x="452" y="727" type="qcurve" smooth="yes"/>
      <point x="427" y="727"/>
      <point x="414" y="688" type="qcurve" smooth="yes"/>
      <point x="320" y="438"/>
      <point x="117" y="36" type="qcurve" smooth="yes"/>
      <point x="104" y="11"/>
      <point x="104" y="-11" type="qcurve" smooth="yes"/>
      <point x="104" y="-55"/>
      <point x="160" y="-55" type="qcurve" smooth="yes"/>
      <point x="169" y="-55"/>
      <point x="355" y="-37" type="qcurve" smooth="yes"/>
      <point x="449" y="-28"/>
      <point x="662" y="-4"/>
      <point x="785" y="10" type="qcurve"/>
    </contour>
  </outline>
</glyph>
<glyph name="sh-bopomofo" format="2">
  <advance width="1000" height="1000"/>
  <note>
uni3115
</note>
  <outline>
    <contour>
      <point x="906" y="603" type="line" smooth="yes"/>
      <point x="906" y="654"/>
      <point x="893" y="671" type="qcurve" smooth="yes"/>
      <point x="879" y="689"/>
      <point x="823" y="689" type="qcurve" smooth="yes"/>
      <point x="202" y="689" type="line" smooth="yes"/>
      <point x="166" y="689"/>
      <point x="166" y="652" type="qcurve" smooth="yes"/>
      <point x="166" y="633"/>
      <point x="180" y="616"/>
      <point x="202" y="616" type="qcurve" smooth="yes"/>
      <point x="812" y="616" type="line" smooth="yes"/>
      <point x="829" y="616"/>
      <point x="829" y="598" type="qcurve" smooth="yes"/>
      <point x="829" y="427" type="line" smooth="yes"/>
      <point x="829" y="409"/>
      <point x="810" y="409" type="qcurve" smooth="yes"/>
      <point x="265" y="409" type="line" smooth="yes"/>
      <point x="228" y="409"/>
      <point x="200" y="377"/>
      <point x="200" y="338" type="qcurve" smooth="yes"/>
      <point x="200" y="239" type="line" smooth="yes"/>
      <point x="200" y="126"/>
      <point x="158" y="-29"/>
      <point x="108" y="-88" type="qcurve"/>
      <point x="95" y="-101"/>
      <point x="92" y="-126"/>
      <point x="102" y="-146"/>
      <point x="121" y="-158"/>
      <point x="131" y="-158" type="qcurve" smooth="yes"/>
      <point x="164" y="-158"/>
      <point x="220" y="-53" type="qcurve" smooth="yes"/>
      <point x="275" y="51"/>
      <point x="275" y="235" type="qcurve" smooth="yes"/>
      <point x="275" y="317" type="line" smooth="yes"/>
      <point x="275" y="329"/>
      <point x="283" y="337"/>
      <point x="295" y="337" type="qcurve" smooth="yes"/>
      <point x="820" y="337" type="line" smooth="yes"/>
      <point x="846" y="337"/>
      <point x="879" y="344"/>
      <point x="899" y="362"/>
      <point x="906" y="393"/>
      <point x="906" y="417" type="qcurve" smooth="yes"/>
    </contour>
  </outline>
</glyph>
<glyph name="t-bopomofo" format="2">
  <advance width="1000" height="1000"/>
  <note>
uni310A
</note>
  <outline>
    <contour>
      <point x="276" y="207"/>
      <point x="152" y="8" type="qcurve" smooth="yes"/>
      <point x="136" y="-16"/>
      <point x="129" y="-61"/>
      <point x="150" y="-94"/>
      <point x="203" y="-111"/>
      <point x="247" y="-108" type="qcurve" smooth="yes"/>
      <point x="796" y="-69" type="line"/>
      <point x="816" y="-109"/>
      <point x="838" y="-150"/>
      <point x="858" y="-150" type="qcurve" smooth="yes"/>
      <point x="870" y="-150"/>
      <point x="899" y="-130"/>
      <point x="899" y="-116" type="qcurve" smooth="yes"/>
      <point x="899" y="-103"/>
      <point x="893" y="-89" type="qcurve" smooth="yes"/>
      <point x="882" y="-64"/>
      <point x="844" y="8"/>
      <point x="816" y="56" type="qcurve" smooth="yes"/>
      <point x="799" y="85"/>
      <point x="761" y="146"/>
      <point x="741" y="178" type="qcurve" smooth="yes"/>
      <point x="686" y="264"/>
      <point x="677" y="274" type="qcurve" smooth="yes"/>
      <point x="667" y="287"/>
      <point x="659" y="291" type="qcurve" smooth="yes"/>
      <point x="649" y="296"/>
      <point x="638" y="296" type="qcurve" smooth="yes"/>
      <point x="629" y="296"/>
      <point x="611" y="284"/>
      <point x="601" y="265"/>
      <point x="603" y="240"/>
      <point x="615" y="227" type="qcurve"/>
      <point x="688" y="125"/>
      <point x="758" y="0" type="qcurve"/>
      <point x="251" y="-33" type="line" smooth="yes"/>
      <point x="226" y="-35"/>
      <point x="226" y="-14"/>
      <point x="234" y="-1" type="qcurve" smooth="yes"/>
      <point x="364" y="212"/>
      <point x="462" y="458" type="qcurve"/>
      <point x="887" y="458" type="line" smooth="yes"/>
      <point x="925" y="458"/>
      <point x="925" y="495" type="qcurve" smooth="yes"/>
      <point x="925" y="533"/>
      <point x="887" y="533" type="qcurve" smooth="yes"/>
      <point x="490" y="533" type="line"/>
      <point x="541" y="671"/>
      <point x="541" y="690" type="qcurve" smooth="yes"/>
      <point x="541" y="711"/>
      <point x="528" y="718" type="qcurve" smooth="yes"/>
      <point x="515" y="726"/>
      <point x="501" y="726" type="qcurve" smooth="yes"/>
      <point x="472" y="726"/>
      <point x="462" y="689" type="qcurve" smooth="yes"/>
      <point x="457" y="670"/>
      <point x="429" y="593"/>
      <point x="406" y="533" type="qcurve"/>
      <point x="111" y="533" type="line" smooth="yes"/>
      <point x="75" y="533"/>
      <point x="75" y="496" type="qcurve" smooth="yes"/>
      <point x="75" y="458"/>
      <point x="111" y="458" type="qcurve" smooth="yes"/>
      <point x="377" y="458" type="line"/>
    </contour>
  </outline>
</glyph>
<glyph name="u-bopomofo" format="2">
  <advance width="1000" height="1000"/>
  <note>
uni3128
</note>
  <outline>
    <contour>
      <point x="660" y="94"/>
      <point x="793" y="-35"/>
      <point x="808" y="-52" type="qcurve" smooth="yes"/>
      <point x="838" y="-87"/>
      <point x="860" y="-87" type="qcurve" smooth="yes"/>
      <point x="873" y="-87"/>
      <point x="897" y="-63"/>
      <point x="897" y="-52" type="qcurve" smooth="yes"/>
      <point x="897" y="-40"/>
      <point x="893" y="-32" type="qcurve" smooth="yes"/>
      <point x="889" y="-22"/>
      <point x="883" y="-16" type="qcurve" smooth="yes"/>
      <point x="879" y="-12"/>
      <point x="845" y="22"/>
      <point x="813" y="53" type="qcurve" smooth="yes"/>
      <point x="588" y="268" type="line"/>
      <point x="637" y="337"/>
      <point x="721" y="475"/>
      <point x="751" y="535" type="qcurve" smooth="yes"/>
      <point x="766" y="564"/>
      <point x="784" y="603"/>
      <point x="788" y="612" type="qcurve" smooth="yes"/>
      <point x="796" y="631"/>
      <point x="796" y="662"/>
      <point x="781" y="670" type="qcurve" smooth="yes"/>
      <point x="766" y="679"/>
      <point x="754" y="679" type="qcurve" smooth="yes"/>
      <point x="732" y="679"/>
      <point x="716" y="642" type="qcurve" smooth="yes"/>
      <point x="672" y="548"/>
      <point x="580" y="388"/>
      <point x="531" y="320" type="qcurve"/>
      <point x="442" y="402"/>
      <point x="336" y="497" type="qcurve" smooth="yes"/>
      <point x="229" y="592"/>
      <point x="214" y="601" type="qcurve" smooth="yes"/>
      <point x="200" y="610"/>
      <point x="188" y="610" type="qcurve" smooth="yes"/>
      <point x="176" y="610"/>
      <point x="156" y="590"/>
      <point x="156" y="577" type="qcurve" smooth="yes"/>
      <point x="156" y="553"/>
      <point x="183" y="531" type="qcurve" smooth="yes"/>
      <point x="243" y="481"/>
      <point x="393" y="347"/>
      <point x="485" y="261" type="qcurve"/>
      <point x="409" y="171"/>
      <point x="313" y="87" type="qcurve" smooth="yes"/>
      <point x="265" y="44"/>
      <point x="176" y="-23"/>
      <point x="134" y="-49" type="qcurve" smooth="yes"/>
      <point x="102" y="-69"/>
      <point x="102" y="-92" type="qcurve" smooth="yes"/>
      <point x="103" y="-103"/>
      <point x="113" y="-120"/>
      <point x="129" y="-129"/>
      <point x="151" y="-127"/>
      <point x="163" y="-119" type="qcurve"/>
      <point x="173" y="-115"/>
      <point x="221" y="-81"/>
      <point x="261" y="-52" type="qcurve" smooth="yes"/>
      <point x="301" y="-23"/>
      <point x="377" y="39"/>
      <point x="413" y="73" type="qcurve" smooth="yes"/>
      <point x="449" y="107"/>
      <point x="513" y="174"/>
      <point x="541" y="208" type="qcurve"/>
    </contour>
  </outline>
</glyph>
<glyph name="x-bopomofo" format="2">
  <advance width="1000" height="1000"/>
  <note>
uni3112
</note>
  <outline>
    <contour>
      <point x="468" y="-98" type="line" smooth="yes"/>
      <point x="468" y="-142"/>
      <point x="508" y="-142" type="qcurve" smooth="yes"/>
      <point x="525" y="-142"/>
      <point x="546" y="-118"/>
      <point x="546" y="-98" type="qcurve" smooth="yes"/>
      <point x="546" y="621" type="line"/>
      <point x="879" y="621" type="line" smooth="yes"/>
      <point x="896" y="621"/>
      <point x="918" y="643"/>
      <point x="918" y="657" type="qcurve" smooth="yes"/>
      <point x="918" y="671"/>
      <point x="894" y="696"/>
      <point x="879" y="696" type="qcurve" smooth="yes"/>
      <point x="119" y="696" type="line" smooth="yes"/>
      <point x="102" y="696"/>
      <point x="83" y="672"/>
      <point x="83" y="643"/>
      <point x="100" y="619"/>
      <point x="119" y="621" type="qcurve"/>
      <point x="468" y="621" type="line"/>
    </contour>
  </outline>
</glyph>
<glyph name="z-bopomofo" format="2">
  <advance width="1000" height="1000"/>
  <note>
uni3117
</note>
  <outline>
    <contour>
      <point x="390" y="-114" type="line" smooth="yes"/>
      <point x="390" y="-158"/>
      <point x="429" y="-158" type="qcurve" smooth="yes"/>
      <point x="469" y="-158"/>
      <point x="469" y="-114" type="qcurve" smooth="yes"/>
      <point x="469" y="612" type="line"/>
      <point x="776" y="612" type="line" smooth="yes"/>
      <point x="789" y="612"/>
      <point x="789" y="596" type="qcurve" smooth="yes"/>
      <point x="789" y="579"/>
      <point x="785" y="515"/>
      <point x="781" y="466" type="qcurve" smooth="yes"/>
      <point x="773" y="370"/>
      <point x="766" y="310" type="qcurve" smooth="yes"/>
      <point x="762" y="280"/>
      <point x="755" y="240"/>
      <point x="753" y="230" type="qcurve" smooth="yes"/>
      <point x="749" y="211"/>
      <point x="732" y="193"/>
      <point x="713" y="193" type="qcurve" smooth="yes"/>
      <point x="692" y="193"/>
      <point x="641" y="218" type="qcurve"/>
      <point x="629" y="226"/>
      <point x="605" y="226"/>
      <point x="586" y="216"/>
      <point x="575" y="196"/>
      <point x="575" y="185" type="qcurve" smooth="yes"/>
      <point x="575" y="153"/>
      <point x="635" y="131" type="qcurve" smooth="yes"/>
      <point x="696" y="110"/>
      <point x="728" y="110" type="qcurve" smooth="yes"/>
      <point x="761" y="110"/>
      <point x="805" y="143"/>
      <point x="817" y="173" type="qcurve" smooth="yes"/>
      <point x="829" y="205"/>
      <point x="838" y="267" type="qcurve" smooth="yes"/>
      <point x="849" y="330"/>
      <point x="859" y="457" type="qcurve" smooth="yes"/>
      <point x="871" y="584"/>
      <point x="871" y="626" type="qcurve" smooth="yes"/>
      <point x="871" y="654"/>
      <point x="835" y="688"/>
      <point x="807" y="688" type="qcurve" smooth="yes"/>
      <point x="167" y="688" type="line"/>
      <point x="148" y="690"/>
      <point x="129" y="666"/>
      <point x="130" y="635"/>
      <point x="149" y="610"/>
      <point x="167" y="612" type="qcurve"/>
      <point x="390" y="612" type="line"/>
    </contour>
  </outline>
</glyph>
<glyph name="zh-bopomofo" format="2">
  <advance width="1000" height="1000"/>
  <note>
uni3113
</note>
  <outline>
    <contour>
      <point x="457" y="-51" type="line"/>
      <point x="114" y="-51" type="line" smooth="yes"/>
      <point x="75" y="-51"/>
      <point x="75" y="-89" type="qcurve" smooth="yes"/>
      <point x="75" y="-124"/>
      <point x="114" y="-124" type="qcurve" smooth="yes"/>
      <point x="883" y="-124" type="line" smooth="yes"/>
      <point x="924" y="-124"/>
      <point x="924" y="-87" type="qcurve" smooth="yes"/>
      <point x="924" y="-51"/>
      <point x="883" y="-51" type="qcurve" smooth="yes"/>
      <point x="533" y="-51" type="line"/>
      <point x="533" y="147" type="line"/>
      <point x="770" y="147" type="line" smooth="yes"/>
      <point x="807" y="147"/>
      <point x="833" y="177"/>
      <point x="833" y="214" type="qcurve" smooth="yes"/>
      <point x="833" y="567" type="line" smooth="yes"/>
      <point x="833" y="605"/>
      <point x="795" y="605" type="qcurve" smooth="yes"/>
      <point x="757" y="605"/>
      <point x="757" y="567" type="qcurve" smooth="yes"/>
      <point x="757" y="234" type="line" smooth="yes"/>
      <point x="757" y="219"/>
      <point x="744" y="219" type="qcurve" smooth="yes"/>
      <point x="533" y="219" type="line"/>
      <point x="533" y="697" type="line" smooth="yes"/>
      <point x="533" y="719"/>
      <point x="516" y="736"/>
      <point x="496" y="736" type="qcurve" smooth="yes"/>
      <point x="457" y="736"/>
      <point x="457" y="697" type="qcurve" smooth="yes"/>
      <point x="457" y="219" type="line"/>
      <point x="245" y="219" type="line" smooth="yes"/>
      <point x="230" y="219"/>
      <point x="230" y="234" type="qcurve" smooth="yes"/>
      <point x="230" y="567" type="line" smooth="yes"/>
      <point x="230" y="588"/>
      <point x="217" y="605"/>
      <point x="195" y="605" type="qcurve" smooth="yes"/>
      <point x="158" y="605"/>
      <point x="158" y="567" type="qcurve" smooth="yes"/>
      <point x="158" y="214" type="line" smooth="yes"/>
      <point x="158" y="174"/>
      <point x="186" y="147"/>
      <point x="225" y="147" type="qcurve" smooth="yes"/>
      <point x="457" y="147" type="line"/>
    </contour>
  </outline>
</glyph>
